<svg width="16" height="14" viewBox="0 0 16 14" fill="none" xmlns="http://www.w3.org/2000/svg">
<path d="M6.2646 7.20004L12.7212 2.70823L13.704 3.78816L8.6257 9.79438L6.2646 7.20004ZM4.32284 7.54269L8.10228 11.6954C8.18052 11.7729 8.27432 11.8329 8.37748 11.8715C8.48064 11.9101 8.5908 11.9263 8.7007 11.9192C8.8106 11.912 8.91773 11.8816 9.01501 11.83C9.11229 11.7783 9.19751 11.7067 9.26504 11.6197L15.4745 4.27552C15.5982 4.1396 15.6683 3.9633 15.6715 3.77954C15.6748 3.59577 15.6111 3.4171 15.4923 3.27686L13.3981 0.975891C13.2697 0.844455 13.0978 0.764251 12.9145 0.750248C12.7312 0.736245 12.5492 0.789399 12.4022 0.899791L4.5075 6.39215C4.41453 6.4512 4.33515 6.52931 4.27461 6.62132C4.21407 6.71332 4.17373 6.81712 4.15628 6.92587C4.13883 7.03462 4.14465 7.14583 4.17336 7.25216C4.20207 7.35849 4.25302 7.45751 4.32284 7.54269V7.54269ZM0.328247 12.4391L5.00938 13.2494L6.24199 12.1275L3.71791 9.35422L0.328247 12.4391Z" fill="black"/>
</svg>
