<svg width="232" height="70" viewBox="0 0 232 70" fill="none" xmlns="http://www.w3.org/2000/svg">
<g clip-path="url(#clip0_147_70)">
<path d="M1.49756 4.77207H24.0404C37.4025 4.77207 44.0836 10.1002 44.0836 20.7565C44.0836 26.0386 41.796 30.4301 37.2207 33.931C43.8563 36.8484 47.1741 42.0537 47.1741 49.5471C47.1741 55.2895 45.2198 59.8655 41.3112 63.2743C39.4023 64.9019 37.3571 66.0382 35.1755 66.683C32.994 67.3279 30.0549 67.6503 26.3584 67.6503H22.8588V51.4816H25.9948C27.843 51.4816 29.1459 51.2514 29.9034 50.7906C30.6609 50.2992 31.0396 49.4548 31.0396 48.2569C31.0396 46.2302 29.4944 45.2168 26.4038 45.2168H22.8588V28.4493C26.2523 28.4493 27.9491 27.267 27.9491 24.9023C27.9491 22.7219 26.419 21.6317 23.3587 21.6317H19.95V67.6503H1.49756V4.77207ZM70.3988 21.7239V67.6503H53.4008V21.7239H70.3988ZM61.9453 1.2251C64.2478 1.2251 66.2327 2.05426 67.8989 3.71258C69.5959 5.3402 70.4443 7.27491 70.4443 9.51671C70.4443 11.9121 69.6414 13.8775 68.0355 15.413C66.4598 16.9485 64.4299 17.7162 61.9453 17.7162C59.4608 17.7162 57.4155 16.9485 55.8096 15.413C54.2339 13.8775 53.4463 11.9121 53.4463 9.51671C53.4463 7.27491 54.2794 5.3402 55.9457 3.71258C57.6426 2.05426 59.6423 1.2251 61.9453 1.2251ZM120.802 67.6503H103.804V41.7159C103.804 39.0748 102.728 37.7543 100.577 37.7543C98.4562 37.7543 97.3955 39.0748 97.3955 41.7159V67.6503H80.3974V42.0384C80.3974 36.05 82.3521 31.0135 86.2605 26.9292C90.1694 22.8141 94.9564 20.7565 100.623 20.7565C107.107 20.7565 112.303 23.1365 116.212 27.8965C119.272 31.6124 120.802 36.787 120.802 43.4203V67.6503ZM155.934 50.4221V68.249C154.541 68.4947 153.268 68.6175 152.117 68.6175C145.299 68.6175 139.618 66.3451 135.073 61.8001C130.528 57.2551 128.256 51.5583 128.256 44.7101C128.256 38.0461 130.543 32.3955 135.118 27.7583C139.724 23.1211 145.314 20.8026 151.889 20.8026C159.222 20.8026 164.994 22.983 169.206 27.3437C173.447 31.6738 175.568 37.6008 175.568 45.1247V67.6503H158.57V46.3684C158.57 43.9423 157.98 42.0076 156.798 40.5643C155.646 39.1209 154.086 38.3993 152.117 38.3993C150.329 38.3993 148.783 39.0595 147.481 40.38C146.178 41.7005 145.527 43.2668 145.527 45.0786C145.527 46.9826 146.117 48.5487 147.299 49.7772C148.481 51.0057 149.981 51.62 151.798 51.62C153.283 51.62 154.662 51.2204 155.934 50.4221ZM209.246 36.096V52.679H203.929V67.6503H185.476V27.6662C185.476 19.9273 187.552 13.9236 191.703 9.6549C195.884 5.35556 201.747 3.20588 209.292 3.20588C216.564 3.20588 221.942 5.15595 225.426 9.05609C228.911 12.9255 230.653 18.9139 230.653 27.0213V67.6503H212.2V28.265C212.2 25.8083 211.913 24.1038 211.337 23.1518C210.761 22.1999 209.731 21.7239 208.247 21.7239C205.368 21.7239 203.929 23.9042 203.929 28.265V36.096H209.246Z" fill="#FFF8E3" fill-opacity="0.9"/>
<path d="M1.49758 4.77207V4.53672H1.26538V4.77207H1.49758ZM37.2208 33.931L37.0808 33.7431L36.7631 33.9863L37.1283 34.1469L37.2208 33.931ZM41.3112 63.2743L41.4607 63.4541L41.4627 63.4527L41.3112 63.2743ZM22.8588 67.6503H22.6266V67.8856H22.8588V67.6503ZM22.8588 51.4816V51.2463H22.6266V51.4816H22.8588ZM29.9034 50.7906L30.0229 50.9926L30.0258 50.9907L30.0286 50.9888L29.9034 50.7906ZM22.8588 45.2168H22.6266V45.4522H22.8588V45.2168ZM22.8588 28.4493V28.214H22.6266V28.4493H22.8588ZM19.95 21.6317V21.3964H19.7178V21.6317H19.95ZM19.95 67.6503V67.8856H20.1822V67.6503H19.95ZM1.49758 67.6503H1.26538V67.8856H1.49758V67.6503ZM1.49758 5.00741H24.0404V4.53672H1.49758V5.00741ZM24.0404 5.00741C30.6974 5.00741 35.6472 6.33573 38.9292 8.95314C42.2006 11.5621 43.8514 15.4817 43.8514 20.7565H44.3158C44.3158 15.375 42.626 11.3024 39.2164 8.58323C35.8174 5.87248 30.7456 4.53672 24.0404 4.53672V5.00741ZM43.8514 20.7565C43.8514 25.9566 41.6047 30.2816 37.0808 33.7431L37.3607 34.1188C41.9873 30.5786 44.3158 26.1205 44.3158 20.7565H43.8514ZM37.1283 34.1469C40.4119 35.5906 42.861 37.5938 44.4907 40.1507C46.1208 42.708 46.942 45.836 46.942 49.5471H47.4063C47.4063 45.7646 46.5687 42.5433 44.8808 39.8953C43.1928 37.247 40.6652 35.1888 37.3132 33.715L37.1283 34.1469ZM46.942 49.5471C46.942 55.2288 45.0117 59.7366 41.1597 63.0959L41.4627 63.4527C45.428 59.9945 47.4063 55.3507 47.4063 49.5471H46.942ZM41.1617 63.094C39.2751 64.7028 37.2582 65.8221 35.1105 66.4571L35.2405 66.9089C37.456 66.2537 39.5296 65.101 41.4607 63.4541L41.1617 63.094ZM35.1105 66.4571C32.9591 67.093 30.0448 67.4149 26.3584 67.4149V67.8856C30.065 67.8856 33.0289 67.5627 35.2405 66.9089L35.1105 66.4571ZM26.3584 67.4149H22.8588V67.8856H26.3584V67.4149ZM23.091 67.6503V51.4816H22.6266V67.6503H23.091ZM22.8588 51.7169H25.9948V51.2463H22.8588V51.7169ZM25.9948 51.7169C27.8483 51.7169 29.2072 51.4887 30.0229 50.9926L29.7839 50.5887C29.0847 51.0142 27.8378 51.2463 25.9948 51.2463V51.7169ZM30.0286 50.9888C30.8733 50.4409 31.2718 49.5066 31.2718 48.2569H30.8074C30.8074 49.4026 30.4485 50.1576 29.7782 50.5925L30.0286 50.9888ZM31.2718 48.2569C31.2718 47.172 30.8521 46.3336 30.0068 45.7793C29.1789 45.2364 27.9667 44.9815 26.4038 44.9815V45.4522C27.9315 45.4522 29.0371 45.704 29.7546 46.1744C30.4545 46.6335 30.8074 47.3152 30.8074 48.2569H31.2718ZM26.4038 44.9815H22.8588V45.4522H26.4038V44.9815ZM23.091 45.2168V28.4493H22.6266V45.2168H23.091ZM22.8588 28.6846C24.5749 28.6846 25.9032 28.387 26.8081 27.7565C27.7286 27.115 28.1813 26.1501 28.1813 24.9023H27.7169C27.7169 26.0191 27.3212 26.8277 26.545 27.3686C25.7531 27.9204 24.5361 28.214 22.8588 28.214V28.6846ZM28.1813 24.9023C28.1813 23.7488 27.7719 22.8531 26.935 22.2568C26.1131 21.6712 24.9089 21.3964 23.3587 21.3964V21.8671C24.8688 21.8671 25.9598 22.1373 26.6679 22.6419C27.3612 23.1358 27.7169 23.8755 27.7169 24.9023H28.1813ZM23.3587 21.3964H19.95V21.8671H23.3587V21.3964ZM19.7178 21.6317V67.6503H20.1822V21.6317H19.7178ZM19.95 67.4149H1.49758V67.8856H19.95V67.4149ZM1.72978 67.6503V4.77207H1.26538V67.6503H1.72978ZM70.3988 21.7238H70.631V21.4885H70.3988V21.7238ZM70.3988 67.6503V67.8856H70.631V67.6503H70.3988ZM53.4008 67.6503H53.1686V67.8856H53.4008V67.6503ZM53.4008 21.7238V21.4885H53.1686V21.7238H53.4008ZM67.899 3.71258L67.7364 3.88054L67.7397 3.88351L67.899 3.71258ZM68.0355 15.413L67.8762 15.2418L67.8744 15.2433L68.0355 15.413ZM55.8096 15.413L55.6485 15.5827L55.6503 15.5842L55.8096 15.413ZM70.1666 21.7238V67.6503H70.631V21.7238H70.1666ZM70.3988 67.4149H53.4008V67.8856H70.3988V67.4149ZM53.633 67.6503V21.7238H53.1686V67.6503H53.633ZM53.4008 21.9592H70.3988V21.4885H53.4008V21.9592ZM61.9453 1.46044C64.1861 1.46044 66.1124 2.26474 67.7364 3.88054L68.0615 3.54465C66.3525 1.8438 64.3096 0.989746 61.9453 0.989746V1.46044ZM67.7397 3.88351C69.3929 5.46948 70.2122 7.34353 70.2122 9.5167H70.6766C70.6766 7.20627 69.7988 5.21092 68.0587 3.54165L67.7397 3.88351ZM70.2122 9.5167C70.2122 11.8524 69.432 13.7542 67.8762 15.2418L68.1948 15.5842C69.8508 14.0009 70.6766 11.9718 70.6766 9.5167H70.2122ZM67.8744 15.2433C66.3483 16.7308 64.3788 17.4809 61.9453 17.4809V17.9516C64.481 17.9516 66.5717 17.1661 68.1962 15.5826L67.8744 15.2433ZM61.9453 17.4809C59.5119 17.4809 57.5261 16.7308 55.9689 15.2418L55.6503 15.5842C57.3045 17.1662 59.4092 17.9516 61.9453 17.9516V17.4809ZM55.9703 15.2433C54.4443 13.7561 53.6785 11.8539 53.6785 9.5167H53.2141C53.2141 11.9703 54.0235 13.999 55.6485 15.5827L55.9703 15.2433ZM53.6785 9.5167C53.6785 7.34207 54.4838 5.46761 56.1068 3.88205L55.7846 3.54312C54.0751 5.21279 53.2141 7.20773 53.2141 9.5167H53.6785ZM56.1068 3.88205C57.7615 2.2649 59.7041 1.46044 61.9453 1.46044V0.989746C59.5806 0.989746 57.5237 1.84361 55.7846 3.54312L56.1068 3.88205ZM120.802 67.6503V67.8856H121.034V67.6503H120.802ZM103.804 67.6503H103.572V67.8856H103.804V67.6503ZM97.3955 67.6503V67.8856H97.6277V67.6503H97.3955ZM80.3974 67.6503H80.1652V67.8856H80.3974V67.6503ZM86.2605 26.9292L86.4272 27.093L86.4277 27.0923L86.2605 26.9292ZM120.802 67.4149H103.804V67.8856H120.802V67.4149ZM104.036 67.6503V41.7159H103.572V67.6503H104.036ZM104.036 41.7159C104.036 40.3689 103.763 39.3149 103.176 38.5949C102.583 37.8662 101.701 37.519 100.577 37.519V37.9897C101.604 37.9897 102.336 38.3027 102.818 38.8946C103.307 39.4951 103.572 40.4219 103.572 41.7159H104.036ZM100.577 37.519C99.4667 37.519 98.5964 37.867 98.0108 38.5961C97.4327 39.316 97.1633 40.3695 97.1633 41.7159H97.6277C97.6277 40.4212 97.8887 39.4939 98.3712 38.8933C98.8458 38.3019 99.5666 37.9897 100.577 37.9897V37.519ZM97.1633 41.7159V67.6503H97.6277V41.7159H97.1633ZM97.3955 67.4149H80.3974V67.8856H97.3955V67.4149ZM80.6296 67.6503V42.0383H80.1652V67.6503H80.6296ZM80.6296 42.0383C80.6296 36.1076 82.5629 31.131 86.4272 27.093L86.0938 26.7653C82.1408 30.8961 80.1652 35.9923 80.1652 42.0383H80.6296ZM86.4277 27.0923C90.2925 23.0236 95.0192 20.9918 100.623 20.9918V20.5211C94.8938 20.5211 90.0459 22.6045 86.0933 26.7659L86.4277 27.0923ZM100.623 20.9918C107.043 20.9918 112.172 23.3444 116.033 28.047L116.39 27.7459C112.434 22.9286 107.171 20.5211 100.623 20.5211V20.9918ZM116.033 28.047C119.048 31.7072 120.57 36.8217 120.57 43.4203H121.034C121.034 36.7522 119.496 31.5175 116.39 27.7459L116.033 28.047ZM120.57 43.4203V67.6503H121.034V43.4203H120.57ZM155.934 50.4221H156.167V49.9994L155.812 50.222L155.934 50.4221ZM155.934 68.249L155.974 68.481L156.167 68.4471V68.249H155.934ZM135.118 27.7583L134.955 27.5913L134.955 27.5919L135.118 27.7583ZM169.206 27.3437L169.04 27.5083L169.041 27.5096L169.206 27.3437ZM175.568 67.6503V67.8856H175.801V67.6503H175.568ZM158.57 67.6503H158.338V67.8856H158.57V67.6503ZM156.798 40.5643L156.618 40.7123L156.619 40.7146L156.798 40.5643ZM155.702 50.4221V68.249H156.167V50.4221H155.702ZM155.894 68.0174C154.511 68.2612 153.252 68.3822 152.117 68.3822V68.8529C153.284 68.8529 154.57 68.7286 155.974 68.481L155.894 68.0174ZM152.117 68.3822C145.356 68.3822 139.735 66.1309 135.236 61.6325L134.91 61.9676C139.501 66.5592 145.243 68.8529 152.117 68.8529V68.3822ZM135.236 61.6325C130.738 57.1346 128.488 51.4995 128.488 44.7101H128.024C128.024 51.6172 130.318 57.3756 134.91 61.9676L135.236 61.6325ZM128.488 44.7101C128.488 38.1074 130.752 32.517 135.283 27.9247L134.955 27.5919C130.335 32.274 128.024 37.9848 128.024 44.7101H128.488ZM135.282 27.9253C139.844 23.3325 145.375 21.0379 151.889 21.0379V20.5672C145.254 20.5672 139.605 22.9097 134.955 27.5913L135.282 27.9253ZM151.889 21.0379C159.174 21.0379 164.881 23.2023 169.04 27.5083L169.371 27.1791C165.107 22.7636 159.27 20.5672 151.889 20.5672V21.0379ZM169.041 27.5096C173.23 31.7857 175.336 37.6476 175.336 45.1247H175.801C175.801 37.554 173.665 31.5619 169.37 27.1779L169.041 27.5096ZM175.336 45.1247V67.6503H175.801V45.1247H175.336ZM175.568 67.4149H158.57V67.8856H175.568V67.4149ZM158.803 67.6503V46.3684H158.338V67.6503H158.803ZM158.803 46.3684C158.803 43.9038 158.202 41.9106 156.977 40.414L156.619 40.7146C157.757 42.1046 158.338 43.9808 158.338 46.3684H158.803ZM156.978 40.4163C155.779 38.9131 154.15 38.1639 152.117 38.1639V38.6346C154.022 38.6346 155.514 39.3288 156.618 40.7123L156.978 40.4163ZM152.117 38.1639C150.265 38.1639 148.661 38.8505 147.316 40.2136L147.645 40.5464C148.906 39.2685 150.393 38.6346 152.117 38.6346V38.1639ZM147.316 40.2136C145.972 41.5767 145.294 43.2022 145.294 45.0786H145.759C145.759 43.3312 146.384 41.8243 147.645 40.5464L147.316 40.2136ZM145.294 45.0786C145.294 47.0366 145.904 48.6641 147.133 49.9415L147.465 49.613C146.331 48.4334 145.759 46.9286 145.759 45.0786H145.294ZM147.133 49.9415C148.362 51.219 149.923 51.8553 151.798 51.8553V51.3846C150.038 51.3846 148.6 50.792 147.465 49.613L147.133 49.9415ZM151.798 51.8553C153.327 51.8553 154.748 51.4435 156.057 50.6221L155.812 50.222C154.576 50.9977 153.239 51.3846 151.798 51.3846V51.8553ZM209.246 36.096H209.479V35.8606H209.246V36.096ZM209.246 52.679V52.9144H209.479V52.679H209.246ZM203.929 52.679V52.4437H203.697V52.679H203.929ZM203.929 67.6503V67.8856H204.161V67.6503H203.929ZM185.476 67.6503H185.244V67.8856H185.476V67.6503ZM225.426 9.05608L225.254 9.21405L225.255 9.21471L225.426 9.05608ZM230.653 67.6503V67.8856H230.885V67.6503H230.653ZM212.2 67.6503H211.968V67.8856H212.2V67.6503ZM203.929 36.096H203.697V36.3313H203.929V36.096ZM209.014 36.096V52.679H209.479V36.096H209.014ZM209.246 52.4437H203.929V52.9144H209.246V52.4437ZM203.697 52.679V67.6503H204.161V52.679H203.697ZM203.929 67.4149H185.476V67.8856H203.929V67.4149ZM185.709 67.6503V27.6662H185.244V67.6503H185.709ZM185.709 27.6662C185.709 19.9704 187.772 14.033 191.868 9.82011L191.538 9.48968C187.332 13.8141 185.244 19.8843 185.244 27.6662H185.709ZM191.868 9.82011C195.995 5.57684 201.792 3.44122 209.292 3.44122V2.97053C201.703 2.97053 195.774 5.13426 191.538 9.48968L191.868 9.82011ZM209.292 3.44122C216.525 3.44122 221.829 5.3804 225.254 9.21405L225.599 8.89812C222.055 4.93148 216.602 2.97053 209.292 2.97053V3.44122ZM225.255 9.21471C228.684 13.0224 230.421 18.9416 230.421 27.0213H230.885C230.885 18.8862 229.138 12.8287 225.598 8.89741L225.255 9.21471ZM230.421 27.0213V67.6503H230.885V27.0213H230.421ZM230.653 67.4149H212.2V67.8856H230.653V67.4149ZM212.433 67.6503V28.265H211.968V67.6503H212.433ZM212.433 28.265C212.433 25.8055 212.148 24.0417 211.535 23.0289L211.139 23.2748C211.678 24.1661 211.968 25.8109 211.968 28.265H212.433ZM211.535 23.0289C210.903 21.9836 209.78 21.4885 208.247 21.4885V21.9592C209.682 21.9592 210.62 22.4161 211.139 23.2748L211.535 23.0289ZM208.247 21.4885C206.74 21.4885 205.583 22.0646 204.816 23.2283C204.058 24.3752 203.697 26.0658 203.697 28.265H204.161C204.161 26.1034 204.519 24.5235 205.201 23.49C205.873 22.4732 206.875 21.9592 208.247 21.9592V21.4885ZM203.697 28.265V36.096H204.161V28.265H203.697ZM203.929 36.3313H209.246V35.8606H203.929V36.3313Z" fill="#FFF8E3" fill-opacity="0.9"/>
</g>
<defs>
<clipPath id="clip0_147_70">
<rect width="230.344" height="68.25" fill="white" transform="translate(0.843842 0.812256)"/>
</clipPath>
</defs>
</svg>
