<svg width="14" height="16" viewBox="0 0 14 16" fill="none" xmlns="http://www.w3.org/2000/svg">
<path d="M3.50005 3.2H2.70005C2.48788 3.2 2.28439 3.11571 2.13436 2.96569C1.98433 2.81566 1.90005 2.61217 1.90005 2.4C1.90005 2.18783 1.98433 1.98434 2.13436 1.83431C2.28439 1.68429 2.48788 1.6 2.70005 1.6H11.5V0.8C11.5 0.587827 11.4158 0.384344 11.2657 0.234315C11.1157 0.0842855 10.9122 0 10.7 0L1.90005 0C1.4757 0 1.06874 0.168571 0.768678 0.468629C0.46862 0.768687 0.300049 1.17565 0.300049 1.6V14.4C0.300049 15.28 1.02005 16 1.90005 16H11.5C11.9244 16 12.3314 15.8314 12.6314 15.5314C12.9315 15.2313 13.1 14.8243 13.1 14.4V4C13.1 3.78783 13.0158 3.58434 12.8657 3.43431C12.7157 3.28429 12.5122 3.2 12.3 3.2H6.70005V9.6L5.10005 8L3.50005 9.6V3.2Z" fill="black"/>
</svg>
