<svg width="15" height="14" viewBox="0 0 15 14" fill="none" xmlns="http://www.w3.org/2000/svg">
<path fill-rule="evenodd" clip-rule="evenodd" d="M2.83335 0.933333C2.57562 0.933333 2.36668 1.14227 2.36668 1.4V12.6C2.36668 12.8577 2.57562 13.0667 2.83335 13.0667H12.1667C12.4244 13.0667 12.6333 12.8577 12.6333 12.6V3.45997L10.1067 0.933333H2.83335ZM1.43335 1.4C1.43335 0.626802 2.06015 0 2.83335 0H10.4933L13.5667 3.07337V12.6C13.5667 13.3732 12.9399 14 12.1667 14H2.83335C2.06015 14 1.43335 13.3732 1.43335 12.6V1.4ZM10.6512 5.44064L7.05608 9.54936L4.8367 7.32998L5.49667 6.67002L7.01062 8.18397L9.94881 4.82603L10.6512 5.44064Z" fill="#213824" fill-opacity="0.81"/>
</svg>
