<svg width="20" height="19" viewBox="0 0 20 19" fill="none" xmlns="http://www.w3.org/2000/svg">
<path d="M3.56992 1.26758C2.52058 1.26758 1.66992 2.11824 1.66992 3.16758V12.6676C1.66992 15.4658 3.93835 17.7342 6.73659 17.7342V16.4676C4.63791 16.4676 2.93659 14.7663 2.93659 12.6676V8.86758H7.36992C8.41926 8.86758 9.26992 8.01692 9.26992 6.96758V3.16758C9.26992 2.11824 8.41926 1.26758 7.36992 1.26758H3.56992Z" fill="#5D9AD0"/>
<path d="M12.4366 1.26758C11.3872 1.26758 10.5366 2.11824 10.5366 3.16758V12.6676C10.5366 15.4658 12.805 17.7342 15.6033 17.7342V16.4676C13.5046 16.4676 11.8033 14.7663 11.8033 12.6676V8.86758H16.2366C17.2859 8.86758 18.1366 8.01692 18.1366 6.96758V3.16758C18.1366 2.11824 17.2859 1.26758 16.2366 1.26758H12.4366Z" fill="#5D9AD0"/>
</svg>
