<svg width="15" height="16" viewBox="0 0 15 16" fill="none" xmlns="http://www.w3.org/2000/svg">
<path fill-rule="evenodd" clip-rule="evenodd" d="M0 2C0 1.17157 0.671573 0.5 1.5 0.5C2.32843 0.5 3 1.17157 3 2C3 2.23157 2.94752 2.45089 2.85381 2.64671L12.8533 12.6462C13.0491 12.5525 13.2684 12.5 13.5 12.5C14.3284 12.5 15 13.1716 15 14C15 14.8284 14.3284 15.5 13.5 15.5C12.6716 15.5 12 14.8284 12 14C12 13.7684 12.0525 13.5491 12.1462 13.3533L2.14671 3.35381C1.95089 3.44752 1.73157 3.5 1.5 3.5C0.671573 3.5 0 2.82843 0 2ZM1.5 1.5C1.22386 1.5 1 1.72386 1 2C1 2.27614 1.22386 2.5 1.5 2.5C1.77614 2.5 2 2.27614 2 2C2 1.72386 1.77614 1.5 1.5 1.5ZM13.5 13.5C13.2239 13.5 13 13.7239 13 14C13 14.2761 13.2239 14.5 13.5 14.5C13.7761 14.5 14 14.2761 14 14C14 13.7239 13.7761 13.5 13.5 13.5Z" fill="black"/>
</svg>
