<svg width="82" height="135" viewBox="0 0 82 135" fill="none" xmlns="http://www.w3.org/2000/svg">
<path d="M75.3705 104.398L75.3457 87.3926H75.12L75.1448 104.398" fill="#FFF8E3" fill-opacity="0.9"/>
<path d="M75.278 43.5813L75.2645 38.4553H75.0388L75.0523 43.5836" fill="#FFF8E3" fill-opacity="0.9"/>
<path d="M44.4704 112.138L44.4817 111.296L44.4952 110.246" fill="#FFF8E3" fill-opacity="0.9"/>
<path d="M44.5831 112.14L44.5944 111.298L44.608 110.246L44.3822 110.244L44.3687 111.293L44.3574 112.135L44.5831 112.14Z" fill="#FFF8E3" fill-opacity="0.9"/>
<path d="M44.8087 76.4407L44.7477 81.3477L44.9734 81.35L45.0344 76.4429" fill="#FFF8E3" fill-opacity="0.9"/>
<path d="M64.9131 50.5962L64.3871 50.8287L64.4797 51.0341L65.0033 50.8016" fill="#FFF8E3" fill-opacity="0.9"/>
<path d="M74.1427 46.5422L64.9742 50.5712L65.0645 50.7789L74.233 46.7499" fill="#FFF8E3" fill-opacity="0.9"/>
<path d="M36.4033 108.964V107.646H36.1776V108.964" fill="#FFF8E3" fill-opacity="0.9"/>
<path d="M81.0721 42.1907C80.9005 38.7485 80.3407 35.4147 79.4356 32.2163C78.6547 29.3836 77.6051 26.675 76.3095 24.1109C73.0863 17.6532 68.3621 12.0735 62.5996 7.82559C61.4281 6.94756 60.2183 6.14176 58.9746 5.38335C56.0696 3.64986 52.9683 2.22109 49.6977 1.14669C46.5716 0.46277 43.3258 0.108398 39.992 0.108398C37.7822 0.108398 35.6086 0.2664 33.4846 0.573372C30.7015 1.34306 28.0155 2.37909 25.4762 3.63858C22.6684 5.03124 20.0185 6.71507 17.5785 8.63139C13.0123 12.2203 9.14352 16.6646 6.22503 21.7183C5.347 23.2329 4.56377 24.7948 3.85728 26.4064C3.13725 28.0677 2.50299 29.7764 1.99062 31.546C0.769504 35.6472 0.110413 40.0057 0.110413 44.5223V98.5787L13.1364 104.341L0.110413 104.316V110.104L26.3565 110.19L40.4321 116.428L0.110413 116.6V122.764L54.3993 122.593L67.229 128.269L0.110413 128.856V134.887L81.133 134.594V44.5246C81.133 43.7436 81.1082 42.9626 81.0721 42.1929V42.1907ZM0.221018 47.6597C0.221018 47.6846 0.232301 47.7094 0.232301 47.7207C0.232301 47.7929 0.243584 47.8539 0.243584 47.9283C0.232298 47.8313 0.218758 47.7455 0.218758 47.6597H0.221018ZM35.8794 107.465L28.9568 104.364L28.4557 104.145L8.45961 95.2201C8.33772 94.7438 8.22712 94.2563 8.15489 93.78V93.7304C7.87501 92.0827 7.89757 90.4462 8.21583 88.8233C8.24066 88.6653 8.27677 88.5186 8.31289 88.3584C8.75303 86.4059 9.59495 84.537 10.8274 82.9141C11.1569 82.4875 11.4977 82.0722 11.8656 81.6817C12.6466 80.8759 13.5134 80.1446 14.502 79.5216C14.8925 79.2779 15.283 79.0567 15.687 78.8625C15.9443 78.7271 16.1994 78.6052 16.468 78.4969C16.9691 78.2644 17.4927 78.0703 18.0186 77.91L18.0547 77.8988C18.3346 77.813 18.6168 77.7407 18.9102 77.6663C19.1675 77.6053 19.4226 77.5557 19.6799 77.5196C19.9485 77.4586 20.2284 77.4225 20.497 77.3977C22.3162 77.1787 24.1355 77.3254 25.8803 77.7994C26.6116 78.0071 27.3203 78.2644 28.0155 78.5804C30.4194 79.6796 32.5456 81.4605 34.0828 83.8531C34.3265 84.2323 34.5477 84.6228 34.7418 85.0133C35.4258 86.345 35.8772 87.7354 36.1097 89.1506L35.8772 107.463L35.8794 107.465ZM40.08 89.9339V89.812C40.2628 89.8481 40.4457 89.8616 40.6285 89.8842C40.4457 89.909 40.2628 89.9203 40.08 89.9339ZM75.1899 59.9634L75.2012 67.0441V67.0554L75.2125 74.7703L75.2238 79.3478L75.2351 87.3923C75.0387 87.7467 74.8333 88.0875 74.6121 88.4306L74.4541 79.9708L74.3819 75.7341C73.9056 76.2826 73.4294 76.8085 72.917 77.3345V123.798L75.2373 123.762L75.2622 125.044L69.6599 122.541L55.8033 116.352L44.486 111.298L42.1047 110.235L44.4972 110.246L44.5695 104.386L44.741 91.1414V90.6652L44.7523 90.1528L44.7636 89.2364L44.8606 81.3996V81.3499C44.5807 79.7022 44.6033 78.0658 44.9216 76.4429C44.9464 76.2849 44.9825 76.1382 45.0186 75.9779C43.4567 76.2104 41.8564 76.3323 40.2335 76.3436H39.9897C35.5093 76.3436 31.2117 75.5017 27.2571 73.9623C27.1353 73.9262 27.0247 73.89 26.9163 73.8404C24.5598 72.9014 22.3253 71.7051 20.2397 70.3012L11.1456 74.2805L6.22503 76.4406L6.29726 67.5046V67.4933L6.30855 65.9426L6.44172 51.928C6.35595 51.6842 6.28372 51.4517 6.22277 51.208V30.8824C9.03067 21.5062 15.6464 13.7912 24.2664 9.49362C26.7696 8.23639 29.4421 7.27259 32.25 6.64961C34.7396 6.08758 37.3285 5.79415 39.9897 5.79415C43.4319 5.79415 46.7657 6.29524 49.9144 7.20939C51.7088 7.7353 53.4423 8.39439 55.1036 9.20019C64.4798 13.631 71.583 22.1043 74.1607 32.3698C74.6618 34.311 74.9913 36.3131 75.1493 38.3648V38.4506C75.1606 38.6469 75.1854 38.8411 75.1854 39.0374V39.0487C75.2351 39.7191 75.2576 40.3804 75.2576 41.0621C75.2576 41.904 75.2328 42.7459 75.1606 43.5766V44.8225L75.1854 59.9589L75.1899 59.9634Z" fill="#FFF8E3" fill-opacity="0.9"/>
<path d="M81.0722 42.1906L81.1851 42.1861C81.0135 38.7349 80.4515 35.3943 79.5441 32.1869C78.7609 29.3474 77.7091 26.6321 76.4112 24.0612C73.1812 17.5877 68.4435 11.9945 62.6674 7.73525C61.4915 6.85496 60.2816 6.0469 59.0334 5.2885C56.1217 3.55049 53.0136 2.11946 49.734 1.0428H49.7295L49.725 1.04055C46.592 0.354372 43.3372 0 39.9967 0C37.7824 0 35.6042 0.158 33.4735 0.464972H33.4667L33.46 0.46723C30.6701 1.23917 27.9773 2.27746 25.4313 3.53921C22.6166 4.93412 19.96 6.62247 17.5132 8.54556C12.9357 12.1435 9.05794 16.5991 6.13267 21.6641C5.25239 23.1809 4.46915 24.7474 3.75815 26.3635C3.03586 28.027 2.39935 29.7424 1.88472 31.5166C0.661346 35.6268 0 39.9967 0 44.5245V98.6532L12.6017 104.228L0 104.206V110.219L26.3364 110.305L39.9086 116.32L0.00225935 116.489V122.879L54.3792 122.708L66.71 128.163L0.00225935 128.745V135L81.2505 134.707V44.5245C81.2505 43.7413 81.2257 42.958 81.1896 42.1884L81.0767 42.1929L80.9639 42.1974C81 42.9648 81.0248 43.7458 81.0248 44.5245V134.481L0.227974 134.772V128.967L67.7573 128.378L54.4266 122.48L0.227974 122.651V116.713L40.965 116.539L26.3861 110.077L0.227974 109.991V104.429L13.6783 104.454L0.227974 98.5042V44.5222C0.227974 40.017 0.884803 35.6697 2.10366 31.5775C2.61378 29.8124 3.24804 28.1083 3.96581 26.4515C4.6723 24.8444 5.45101 23.2847 6.32904 21.7747C9.23851 16.7322 13.1005 12.2992 17.6531 8.71936C20.0886 6.80756 22.7317 5.12598 25.5329 3.73784C28.0654 2.48286 30.7446 1.44909 33.5209 0.681658L33.4916 0.573316L33.5074 0.683915C35.6268 0.379201 37.7937 0.2212 39.9989 0.2212C43.3237 0.2212 46.5627 0.573315 49.6798 1.25723L49.7047 1.14663L49.6685 1.25497C52.9324 2.32712 56.0247 3.75138 58.9228 5.48035C60.1643 6.23424 61.3718 7.03778 62.5388 7.91582C68.2877 12.1525 72.9984 17.7186 76.2148 24.1605C77.5059 26.7179 78.5532 29.4197 79.332 32.2456C80.2326 35.4372 80.7923 38.762 80.9639 42.1951L81.0767 42.1906H81.0722ZM0.221203 47.6597H0.108346C0.108346 47.6913 0.115114 47.7116 0.119629 47.7251L0.12414 47.7364L0.1896 47.7184H0.121888V47.7364L0.18734 47.7184H0.119629C0.119629 47.8041 0.133169 47.8651 0.130912 47.926H0.243769L0.356626 47.9125C0.343083 47.8132 0.33406 47.7319 0.33406 47.6574H0.108346C0.108346 47.7545 0.121885 47.8425 0.133171 47.9396L0.358886 47.926C0.358886 47.8402 0.345345 47.7793 0.347603 47.7184C0.347603 47.6958 0.343084 47.6868 0.343084 47.6777L0.336313 47.6552V47.6506L0.311487 47.6552H0.336313H0.110598H0.223455L0.221203 47.6597ZM35.8796 107.465L35.9248 107.361L29.0021 104.26L28.501 104.041L8.50493 95.1185L8.45979 95.2223L8.56813 95.1952C8.44624 94.7212 8.3379 94.2359 8.26567 93.7664L8.15508 93.7845H8.26793V93.7168C8.13702 92.9584 8.07381 92.2022 8.07381 91.4483C8.07381 90.5793 8.15959 89.7126 8.32662 88.8504V88.8458C8.34919 88.6946 8.3853 88.5502 8.42368 88.3899C8.85931 86.451 9.69445 84.5979 10.9178 82.9885C11.2451 82.5642 11.5859 82.1511 11.9493 81.7652L11.8681 81.6884L11.9493 81.7674C12.7258 80.9661 13.5858 80.2416 14.5654 79.6231C14.9536 79.3816 15.3396 79.1627 15.7391 78.9708C15.9919 78.8377 16.2469 78.718 16.511 78.6097H16.5133C17.0076 78.3795 17.529 78.1876 18.0482 78.0296L18.0865 78.0161L18.0504 77.91L18.0843 78.0183C18.3619 77.9348 18.6418 77.8603 18.933 77.7881C19.1858 77.7271 19.4386 77.6797 19.6914 77.6436H19.6959H19.7004C19.9622 77.5849 20.2376 77.5488 20.5039 77.524C21.0524 77.4585 21.6032 77.4247 22.1516 77.4247C23.4021 77.4247 24.6413 77.594 25.8443 77.9235C26.5711 78.1289 27.2731 78.384 27.9638 78.6977C30.3496 79.7879 32.4555 81.5553 33.9836 83.9298C34.2251 84.3045 34.4441 84.6927 34.6359 85.0787C35.3153 86.3991 35.7622 87.7782 35.9925 89.1844L36.1031 89.1664H35.9902L35.7577 107.476H35.8706L35.9157 107.375L35.8706 107.479H35.9834L36.2159 89.1596V89.1506C35.9812 87.724 35.5252 86.3201 34.8368 84.9794L34.7375 85.0313L34.8391 84.9816C34.6427 84.5866 34.4215 84.1939 34.1732 83.8102C32.6226 81.3995 30.4828 79.6028 28.0586 78.4946C27.3566 78.1741 26.6434 77.9167 25.9053 77.7068C24.6819 77.3728 23.4224 77.199 22.1516 77.199C21.5941 77.199 21.0366 77.2328 20.4768 77.3005L20.4904 77.4134L20.4791 77.3005C20.2082 77.3254 19.9216 77.3615 19.6462 77.4247L19.671 77.5353L19.6552 77.4247C19.3957 77.4608 19.1361 77.5105 18.8765 77.5737C18.5831 77.6481 18.301 77.7204 18.0166 77.8084L17.9782 77.8219L18.0143 77.928L17.9827 77.8197C17.4523 77.9799 16.9241 78.1763 16.4185 78.411L16.4659 78.5126L16.423 78.4088C16.1499 78.5194 15.8903 78.6435 15.633 78.779L15.6849 78.8783L15.6353 78.7767C15.229 78.9731 14.834 79.1965 14.4412 79.4426C13.4436 80.0701 12.5701 80.8104 11.7823 81.6207C11.4121 82.0157 11.0691 82.4333 10.7373 82.8621C9.49356 84.5008 8.64487 86.3833 8.20247 88.3515C8.16636 88.5073 8.12799 88.6585 8.10316 88.8233L8.21376 88.8413L8.10316 88.8188C7.93162 89.6945 7.84585 90.5771 7.84585 91.4596C7.84585 92.2271 7.9113 92.9945 8.04222 93.7664L8.15282 93.7484H8.03996V93.8138C8.11444 94.2946 8.22504 94.7867 8.34919 95.2652L8.36273 95.3171L28.4107 104.264L28.9118 104.483L35.9902 107.655V107.483H35.8796V107.465ZM40.0802 89.9338H40.193V89.8119H40.0802L40.0576 89.9225C40.2495 89.9609 40.4368 89.9722 40.6151 89.997L40.6309 89.8841L40.6151 89.7713C40.4368 89.7961 40.2562 89.8074 40.0734 89.8187L40.0802 89.9315L40.0869 90.0444C40.2698 90.0331 40.4549 90.0196 40.6445 89.9947L41.4841 89.8819L40.6445 89.7713C40.4571 89.7465 40.2765 89.7352 40.1027 89.6991L39.9673 89.672V90.0534L40.0869 90.0444L40.0802 89.9315V89.9338ZM75.1901 59.9634H75.0772L75.0885 67.0441V67.0553L75.0998 74.7703L75.1111 79.3478L75.1224 87.3922H75.2352L75.1359 87.3381C74.9418 87.6902 74.7364 88.0288 74.5175 88.3696L74.6123 88.4305H74.7251L74.5671 79.9685L74.4881 75.4384L74.294 75.6618C73.82 76.2103 73.3438 76.734 72.8336 77.2554L72.802 77.2892V123.913L75.1246 123.877L75.1427 124.868L69.7007 122.437L55.8441 116.248L44.5268 111.194L42.6353 110.35L44.6035 110.359L44.678 104.386L44.8495 91.1414V90.6651L44.8608 90.1527L44.8721 89.2363L44.9691 81.3995V81.3296C44.8382 80.5711 44.775 79.815 44.775 79.0611C44.775 78.1921 44.8608 77.3254 45.0278 76.4631V76.4586C45.0504 76.3074 45.0865 76.1629 45.1249 76.0027L45.1633 75.8424L44.9985 75.8672C43.4411 76.0975 41.8475 76.2194 40.2291 76.2329H39.9854C35.5185 76.2329 31.2367 75.3932 27.2934 73.8606H27.2889L27.2844 73.8584C27.1648 73.8223 27.0587 73.7862 26.9549 73.741C24.6074 72.8043 22.3796 71.6125 20.2985 70.2131L20.2466 70.1792L11.0961 74.1834L6.33581 76.2735L6.40805 67.5113V67.4977L6.41933 65.9493L6.55476 51.9144L6.54799 51.8963C6.46222 51.6548 6.39224 51.4269 6.3313 51.1853L6.2207 51.2124H6.33356V30.8868H6.2207L6.32904 30.9184C9.12791 21.5738 15.7233 13.8815 24.314 9.59965C26.8081 8.34693 29.4738 7.38539 32.2727 6.76467C34.7556 6.2049 37.3355 5.91373 39.9876 5.91373C43.4185 5.91373 46.741 6.41256 49.8807 7.32444C51.6684 7.8481 53.3973 8.50493 55.0518 9.30848C64.3964 13.7257 71.4793 22.172 74.0457 32.4036C74.5446 34.338 74.8741 36.3333 75.0321 38.3783L75.145 38.3693H75.0321V38.4595C75.0456 38.6627 75.0682 38.8568 75.0682 39.0419V39.0622C75.1179 39.7303 75.1404 40.3871 75.1404 41.0688C75.1404 41.9085 75.1156 42.7481 75.0434 43.5742V43.5788V44.8292L75.0682 59.9679H75.1811H75.2939L75.2691 44.8315V43.5855H75.1562L75.2691 43.5945C75.3436 42.7594 75.3662 41.9152 75.3662 41.0688C75.3662 40.3826 75.3413 39.7213 75.2917 39.0464L75.1788 39.0554H75.2917V39.0441C75.2917 38.8387 75.2668 38.6424 75.2556 38.4505L75.1427 38.4573H75.2556V38.3625C75.0953 36.3062 74.7658 34.2974 74.2624 32.3494C71.678 22.0501 64.5499 13.5519 55.1444 9.10533L55.097 9.2069L55.1466 9.10533C53.4809 8.29727 51.7406 7.63593 49.9417 7.10776C46.7816 6.1891 43.4388 5.68801 39.9854 5.68801C37.3152 5.68801 34.7194 5.98144 32.2208 6.54573C29.4039 7.17096 26.7224 8.13702 24.2102 9.39876C15.563 13.7099 8.92702 21.4497 6.1101 30.8552L6.10558 30.871V51.2418C6.17104 51.4901 6.24552 51.7248 6.3313 51.9731L6.43738 51.9347H6.32452L6.19135 65.9471L6.18007 67.4977V67.5113L6.10558 76.6211L11.1842 74.3911L20.2782 70.4117L20.2331 70.3079L20.1699 70.4004C22.2645 71.8089 24.5059 73.0097 26.8691 73.9509L26.912 73.8471L26.8668 73.9509C26.9842 74.0028 27.0971 74.0412 27.2212 74.0773L27.2528 73.969L27.2122 74.0751C31.1802 75.619 35.4914 76.4631 39.9854 76.4631H40.2314C41.8611 76.4519 43.4636 76.3277 45.0324 76.0952L45.0166 75.9846L44.906 75.9598C44.8698 76.1178 44.8315 76.2668 44.8066 76.4315L44.9172 76.4496L44.8066 76.427C44.6351 77.3028 44.5493 78.1853 44.5493 79.0679C44.5493 79.8353 44.6148 80.6027 44.7457 81.3747L44.8563 81.3566H44.7434V81.4063L44.6464 89.2431L44.6351 90.1595L44.6238 90.6741V91.1527L44.4523 104.398L44.38 110.144L41.5631 110.131L44.4342 111.411L55.7515 116.464L69.6082 122.653L75.3729 125.229L75.3436 123.658L73.0255 123.694V77.3457H72.9126L72.9939 77.4247C73.5085 76.8988 73.987 76.3706 74.4633 75.8198L74.3775 75.7454H74.2647L74.3369 79.9843L74.5017 88.8165L74.7026 88.505C74.9238 88.1619 75.1314 87.8166 75.33 87.46L75.3436 87.4351L75.3323 79.3613L75.321 74.7838L75.3097 67.0689V67.0576L75.2984 59.9769H75.1856L75.1901 59.9634Z" fill="#FFF8E3" fill-opacity="0.9"/>
<path d="M74.3841 75.737C73.9079 76.2854 73.4316 76.8114 72.9193 77.3373L72.908 77.3486C72.7116 75.737 72.2376 74.1502 71.4544 72.6356C71.258 72.2452 71.0391 71.8547 70.7953 71.4755C69.2582 69.0829 67.1319 67.2997 64.7281 66.2028C60.5049 64.2729 55.4264 64.458 51.2145 67.1417C47.9304 69.2409 45.8064 72.4641 45.0254 75.9807C43.4635 76.2132 41.8632 76.3351 40.2403 76.3464H39.9965C35.5161 76.3464 31.2185 75.5045 27.2639 73.9651C27.142 73.929 27.0314 73.8929 26.9231 73.8432L45.2963 65.4692C45.3685 65.3834 45.4543 65.2977 45.5401 65.2254C45.6123 65.1397 45.6868 65.0674 45.7725 65.0065C45.8448 64.9094 45.9057 64.8485 45.9802 64.7988C46.1766 64.6024 46.3707 64.4196 46.5671 64.2616C46.786 64.0653 47.0072 63.8711 47.2374 63.6996C47.3097 63.6274 47.3954 63.5664 47.4812 63.5032C47.5421 63.4536 47.5918 63.4174 47.6527 63.3813C47.7995 63.2594 47.9575 63.1488 48.1042 63.0518C48.129 63.027 48.1403 63.0157 48.1651 63.0021C48.5669 62.7222 48.9709 62.4649 49.3975 62.2076H49.4088C49.6661 62.0609 49.9212 61.9142 50.1785 61.781C50.4471 61.6456 50.7044 61.5124 50.973 61.3905C51.2416 61.2686 51.5102 61.1468 51.7788 61.0362C52.0587 60.9256 52.3408 60.8172 52.6207 60.7179C52.9006 60.6208 53.1827 60.5215 53.4626 60.438C54.3294 60.1807 55.221 59.9866 56.1238 59.8512C56.4285 59.815 56.7333 59.7789 57.0402 59.7406C57.3449 59.7157 57.6497 59.6909 57.9679 59.6796C58.2613 59.6683 58.5548 59.6548 58.8459 59.6548C59.1371 59.6548 59.4441 59.6661 59.7375 59.6909C62.8253 59.8241 65.7325 60.7156 68.247 62.1805C70.6395 63.5732 72.6913 65.476 74.2532 67.7467L74.2645 68.6134L74.3864 75.7302L74.3841 75.737Z" fill="#FFF8E3" fill-opacity="0.9"/>
<path d="M74.3841 75.7368L74.2983 75.6624C73.8243 76.2108 73.3481 76.7345 72.838 77.2559L72.9192 77.3349L72.8402 77.2559L72.8289 77.2672L72.9079 77.3462L73.0208 77.3326C72.8244 75.7075 72.3437 74.1072 71.5559 72.5814L71.4566 72.6333L71.5582 72.5836C71.3618 72.1886 71.1406 71.7959 70.8923 71.4122C69.3417 69.0015 67.2019 67.2048 64.7777 66.0966C62.9088 65.2434 60.8751 64.801 58.8211 64.801C56.196 64.801 53.5371 65.5255 51.1558 67.0446C47.8468 69.1618 45.7048 72.4098 44.9171 75.9535L45.0277 75.9784L45.0119 75.8678C43.4544 76.098 41.8609 76.2199 40.2425 76.2334H39.9987C35.5318 76.2334 31.25 75.3938 27.3068 73.8612H27.3023L27.2978 73.8589C27.1781 73.8228 27.0721 73.7867 26.9682 73.7415L26.9231 73.8454L26.9705 73.9469L45.3662 65.5616L45.382 65.5436C45.452 65.4623 45.5333 65.3811 45.6145 65.3111L45.6213 65.3043L45.6258 65.2975C45.6958 65.2163 45.7612 65.1508 45.838 65.0967L45.8515 65.0854L45.8628 65.0718C45.9328 64.9793 45.9824 64.9319 46.0434 64.8912L46.0524 64.8845L46.0614 64.8754C46.2555 64.6813 46.4474 64.5008 46.6393 64.345V64.3428C46.8582 64.1464 47.0772 63.9545 47.3029 63.7875L47.3096 63.783L47.3164 63.7762C47.3796 63.7108 47.4609 63.6543 47.5466 63.5934H47.5489L47.5511 63.5889C47.6121 63.5415 47.655 63.5076 47.7092 63.476L47.7159 63.4715L47.7227 63.467C47.8649 63.3496 48.0184 63.2413 48.1651 63.1442L48.1741 63.1374L48.1809 63.1307L48.2035 63.1081L48.2125 63.1036L48.2193 63.0991L48.226 63.0946C48.6255 62.8147 49.0273 62.5596 49.4517 62.3046L49.393 62.2075V62.3204H49.4359L49.463 62.3046C49.7203 62.1578 49.9753 62.0134 50.2281 61.8802L50.1762 61.7809L50.2259 61.8825C50.4967 61.747 50.7518 61.6139 51.0159 61.4942C51.2845 61.3724 51.5508 61.2505 51.8172 61.1421L51.7743 61.0383L51.8149 61.1444C52.0948 61.0338 52.3747 60.9254 52.6523 60.8284C52.9322 60.7313 53.2121 60.6343 53.4897 60.5485C54.3519 60.2934 55.2367 60.0993 56.1351 59.9662L56.1193 59.8556L56.1328 59.9684C56.4375 59.9323 56.7423 59.8962 57.0492 59.8578L57.0357 59.745L57.0447 59.8578C57.3494 59.833 57.6541 59.8082 57.9679 59.7969C58.2613 59.7856 58.5525 59.772 58.8437 59.772C59.1461 59.772 59.435 59.7833 59.7262 59.8082H59.7285C62.7982 59.9413 65.6851 60.8284 68.186 62.2842C70.565 63.6679 72.6032 65.5616 74.1561 67.8165L74.2487 67.7533H74.1358L74.1471 68.6223L74.269 75.7391H74.3819L74.2961 75.6624L74.3819 75.7368H74.4947L74.3728 68.6178L74.3593 67.7172L74.339 67.6901C72.768 65.4059 70.7027 63.4896 68.2966 62.0901C65.7663 60.6162 62.8433 59.7201 59.7352 59.5847L59.7307 59.6976L59.7397 59.5847C59.4441 59.5599 59.1484 59.5486 58.8391 59.5486C58.5435 59.5486 58.2478 59.5599 57.9543 59.5734C57.6338 59.5847 57.3269 59.6095 57.0221 59.6344H57.0199C56.7152 59.6705 56.4105 59.7066 56.1035 59.745C55.1961 59.8804 54.2978 60.0768 53.4265 60.3341C53.1421 60.4198 52.86 60.5192 52.5801 60.6162C52.2957 60.7155 52.0135 60.8261 51.7336 60.9345C51.4628 61.0451 51.1919 61.1692 50.9233 61.2911C50.6502 61.4152 50.3929 61.5507 50.1266 61.6838C49.867 61.8193 49.6097 61.966 49.3546 62.1127L49.411 62.2098V62.0969H49.3681L49.3411 62.1127C48.9122 62.37 48.5059 62.6273 48.1019 62.9095L48.1674 63.002L48.1177 62.9004L48.0658 62.9343L48.0274 62.9704L48.1064 63.0494L48.0432 62.9546C47.8965 63.0539 47.734 63.1645 47.5828 63.2909L47.655 63.3767L47.5963 63.2796C47.5286 63.3203 47.4744 63.3609 47.4135 63.4106L47.4834 63.4986L47.418 63.406C47.3322 63.467 47.2419 63.5324 47.1607 63.6137L47.2397 63.6927L47.1719 63.6024C46.9349 63.7785 46.7115 63.9748 46.4925 64.1712L46.567 64.2547L46.4948 64.1667C46.2939 64.3292 46.0975 64.5143 45.9012 64.7107L45.9802 64.7897L45.917 64.6949C45.8312 64.7513 45.759 64.8258 45.6822 64.9296L45.7725 64.9973L45.7071 64.9048C45.6123 64.9725 45.531 65.0538 45.4543 65.1418L45.54 65.2163L45.4655 65.1305C45.3753 65.2072 45.2872 65.2975 45.2082 65.3878L45.294 65.4623L45.2466 65.3607L26.6454 73.8386L26.8734 73.9402C26.9908 73.9921 27.1037 74.0304 27.2278 74.0666L27.2594 73.9582L27.2188 74.0643C31.1868 75.6082 35.498 76.4524 39.992 76.4524H40.238C41.8677 76.4411 43.4702 76.3169 45.0389 76.0844L45.1157 76.0732L45.1315 75.9964C45.9057 72.5091 48.0139 69.313 51.2709 67.2297C53.6161 65.7354 56.2299 65.0222 58.8143 65.0222C60.8345 65.0222 62.8365 65.4578 64.6761 66.2975C67.0619 67.3877 69.1679 69.155 70.6959 71.5295C70.9375 71.9042 71.1564 72.2924 71.3483 72.6784C72.1225 74.1817 72.5965 75.7549 72.7883 77.353L72.8154 77.5832L72.9915 77.4071C73.5061 76.8812 73.9846 76.353 74.4609 75.8023L74.4902 75.7707V75.7278H74.3774L74.3841 75.7368Z" fill="#FFF8E3" fill-opacity="0.9"/>
<path d="M74.822 46.5973C74.4925 48.6965 73.9914 50.7234 73.3075 52.6758L57.9634 59.6707C57.6451 59.682 57.3404 59.7068 57.0357 59.743C56.731 59.7678 56.4263 59.7926 56.1193 59.8536C55.2029 59.9754 54.3249 60.1718 53.4581 60.4404C53.1782 60.5126 52.8961 60.5984 52.6162 60.7203C52.3363 60.8061 52.0429 60.9167 51.7743 61.0386C51.4944 61.1356 51.2258 61.2575 50.9685 61.3929C50.6999 61.5035 50.4313 61.6367 50.174 61.7834C49.9166 61.9053 49.6616 62.052 49.4043 62.1987V62.21H49.393C48.9664 62.4538 48.5511 62.7224 48.1606 63.0045C48.1357 63.0158 48.1245 63.0294 48.0996 63.0542C47.9529 63.1513 47.7949 63.2619 47.6482 63.3837C47.5873 63.4199 47.5376 63.456 47.4767 63.5056C47.3909 63.5666 47.3051 63.6275 47.2329 63.702C47.0004 63.8735 46.7815 64.0677 46.5625 64.264C46.3661 64.422 46.172 64.6049 45.9757 64.8012C45.9034 64.8509 45.8425 64.9118 45.768 65.0089C45.6822 65.0698 45.61 65.1443 45.5355 65.2278C45.4497 65.3001 45.364 65.3858 45.2917 65.4603L26.9186 73.8343C24.5621 72.8954 22.3275 71.6991 20.2419 70.2951L36.0397 63.3725L36.297 63.2618L35.6018 33.3885L35.5522 31.2397L35.2948 20.3128C33.5004 15.223 29.4104 11.194 24.2709 9.49659C26.7741 8.23936 29.4466 7.27556 32.2545 6.65259C36.6378 9.79002 39.5789 14.8189 39.8836 20.5453C40.9084 14.6609 44.7297 9.74262 49.9189 7.21462C51.7133 7.74053 53.4468 8.39962 55.1081 9.20542C50.359 11.1579 46.6235 15.0401 44.8651 19.875L44.7545 32.1674L44.7184 36.4153L44.5108 59.6459L64.4346 50.9175L64.9605 50.6986L65.0215 50.6737L74.8243 46.5973H74.822Z" fill="#FFF8E3" fill-opacity="0.9"/>
<path d="M74.822 46.597L74.7114 46.579C74.3819 48.6713 73.8831 50.6915 73.2037 52.6394L73.3097 52.6778L73.2624 52.5762L57.9183 59.5711L57.9657 59.6727L57.9611 59.5598C57.6406 59.5711 57.3314 59.5959 57.0244 59.6343L57.038 59.7472L57.0289 59.6343C56.7242 59.6591 56.415 59.684 56.1013 59.7472L56.1238 59.8578L56.108 59.7449C55.1871 59.8668 54.3001 60.0654 53.4288 60.334L53.4626 60.4424L53.4333 60.334C53.1489 60.4085 52.8622 60.4943 52.5756 60.6207L52.6207 60.7245L52.5869 60.6162C52.3002 60.7042 52.0045 60.8148 51.7314 60.9389L51.7788 61.0428L51.7427 60.9367C51.456 61.036 51.1829 61.1601 50.9211 61.2978L50.973 61.3971L50.9301 61.2933C50.657 61.4062 50.3839 61.5416 50.1243 61.6906L50.1808 61.7876L50.1334 61.6861C49.8715 61.8102 49.6142 61.9592 49.3569 62.1059L49.3005 62.1375V62.2142H49.4133V62.1014H49.3704L49.3433 62.1172C48.9122 62.3632 48.4947 62.6341 48.0997 62.9162L48.1651 63.0087L48.1155 62.9072L48.0636 62.941L48.0252 62.9771L48.1042 63.0561L48.041 62.9613C47.8943 63.0607 47.7317 63.1713 47.5805 63.2977L47.6527 63.3834L47.5941 63.2864C47.5263 63.327 47.4722 63.3676 47.4112 63.4173L47.4812 63.5053L47.4158 63.4128C47.33 63.4737 47.2397 63.5392 47.1584 63.6204L47.2374 63.6994L47.1697 63.6091C46.9327 63.7852 46.7093 63.9816 46.4903 64.1779L46.5648 64.2615L46.4926 64.1734C46.2917 64.3359 46.0953 64.521 45.8989 64.7174L45.9779 64.7964L45.9147 64.7016C45.829 64.758 45.7567 64.8325 45.68 64.9363L45.7703 65.0041L45.7048 64.9115C45.61 64.9792 45.5288 65.0605 45.452 65.1485L45.5378 65.223L45.4633 65.1372C45.373 65.214 45.2873 65.302 45.2128 65.3742L45.2918 65.4532L45.2444 65.3517L26.8712 73.7257L26.9186 73.8272L26.9615 73.7234C24.614 72.7867 22.3862 71.5949 20.3051 70.1932L20.2419 70.2858L20.2871 70.3896L36.0849 63.4669L36.4099 63.327L35.7124 33.3792L35.6628 31.2304L35.4055 20.2855L35.3987 20.2697C33.593 15.1459 29.4782 11.0921 24.3048 9.38343L24.2687 9.48951L24.3183 9.59108C26.8125 8.33837 29.4782 7.37682 32.2771 6.75611L32.2522 6.64551L32.1868 6.73805C36.5431 9.85743 39.4661 14.8548 39.7685 20.545L39.8204 21.5382L39.992 20.5586C41.01 14.7103 44.8087 9.82131 49.9641 7.30911L49.9144 7.20754L49.8828 7.31588C51.6727 7.83954 53.3994 8.49637 55.0539 9.29991L55.1036 9.19834L55.0607 9.09451C50.2823 11.0605 46.5242 14.9654 44.7546 19.8295L44.7478 19.8476L44.6372 32.1603L44.6011 36.4083L44.3912 59.8149L64.473 51.0165L64.9967 50.7976L65.0576 50.7727L74.8604 46.6941L74.8175 46.5903L74.7747 46.4864L64.9718 50.5628L64.9109 50.5877L64.385 50.8089L44.6214 59.4673L44.8268 36.4105L44.8629 32.1626L44.9735 19.8701H44.8607L44.9667 19.9085C46.7138 15.1053 50.4268 11.2456 55.1465 9.30443L55.379 9.20963L55.1532 9.09903C53.4875 8.29097 51.7472 7.62962 49.9483 7.10145L49.9054 7.09017L49.867 7.10822C44.6462 9.65203 40.8023 14.5997 39.7708 20.5202L39.8814 20.5405L39.9942 20.5337C39.6873 14.7735 36.7259 9.71297 32.3177 6.55522L32.2771 6.52588L32.2274 6.53717C29.4105 7.1624 26.729 8.12845 24.2168 9.3902L23.973 9.51209L24.2326 9.59786C29.3382 11.2839 33.4034 15.2859 35.1843 20.3441L35.2904 20.3058H35.1775L35.4348 31.2349L35.4845 33.3837L36.1774 63.1803L35.9923 63.2593L20.0072 70.2632L20.1765 70.3783C22.2711 71.7868 24.5125 72.9876 26.8757 73.9288L26.9208 73.9469L45.355 65.5435L45.3685 65.53C45.4407 65.4577 45.5265 65.3742 45.6055 65.3043L45.6123 65.2975L45.6168 65.2907C45.6868 65.2095 45.7522 65.144 45.829 65.0898L45.8425 65.0785L45.8538 65.065C45.9238 64.9725 45.9734 64.9251 46.0344 64.8844L46.0434 64.8777L46.0524 64.8686C46.2466 64.6745 46.4384 64.4939 46.6303 64.3382V64.3359C46.8492 64.1396 47.0682 63.9477 47.2939 63.7807L47.3006 63.7762L47.3074 63.7694C47.3706 63.7039 47.4519 63.6475 47.5376 63.5866H47.5399L47.5422 63.5821C47.6031 63.5347 47.646 63.5008 47.7002 63.4692L47.7069 63.4647L47.7137 63.4602C47.8559 63.3428 48.0094 63.2345 48.1561 63.1374L48.1651 63.1306L48.1719 63.1239L48.1945 63.1013L48.2035 63.0968L48.2125 63.0923L48.2193 63.0877C48.6075 62.8101 49.0183 62.5438 49.4427 62.3L49.3862 62.2029V62.3158H49.5104V62.1917H49.3975L49.4539 62.2887C49.7113 62.142 49.9641 61.9975 50.2146 61.8779H50.2191L50.2236 61.8734C50.4764 61.7289 50.7405 61.5958 51.0046 61.4897H51.0091L51.0136 61.4852C51.2664 61.352 51.5305 61.2324 51.8036 61.1376H51.8082L51.8127 61.1331C52.0768 61.0134 52.3657 60.9051 52.641 60.8216H52.6478L52.6546 60.8171C52.9277 60.6974 53.2031 60.6139 53.4807 60.5417H53.483H53.4852C54.3452 60.2753 55.2187 60.0812 56.1283 59.9593H56.1329H56.1374C56.4331 59.9006 56.7355 59.8758 57.0402 59.851H57.0425C57.3449 59.8149 57.6474 59.7901 57.9611 59.7788H57.9837L73.3933 52.7545L73.4091 52.7094C74.0952 50.7502 74.5963 48.7165 74.9281 46.6106L74.9597 46.4119L74.7747 46.4887L74.8175 46.5925L74.822 46.597Z" fill="#FFF8E3" fill-opacity="0.9"/>
<path d="M77.6345 67.7532H74.2487V89.8123H77.6345V67.7532Z" fill="#FFF8E3" fill-opacity="0.9"/>
<path d="M77.6347 89.8121V89.6992H74.3619V67.8659H77.5219V89.8121H77.6347V89.6992V89.8121H77.7476V67.6401H74.1361V89.925H77.7476V89.8121H77.6347Z" fill="#FFF8E3" fill-opacity="0.9"/>
<path d="M44.495 109.524H41.9919V112.837H44.495V109.524Z" fill="#FFF8E3" fill-opacity="0.9"/>
<path d="M44.4951 112.835V112.722H42.1048V109.636H44.3823V112.835H44.4951V112.722V112.835H44.608V109.411H41.8791V112.948H44.608V112.835H44.4951Z" fill="#FFF8E3" fill-opacity="0.9"/>
<path d="M75.9462 122.635H72.9193V126.775H75.9462V122.635Z" fill="#FFF8E3" fill-opacity="0.9"/>
<path d="M75.944 126.776V126.663H73.03V122.749H75.8311V126.776H75.944V126.663V126.776H76.0568V122.523H72.8065V126.889H76.0568V126.776H75.944Z" fill="#FFF8E3" fill-opacity="0.9"/>
</svg>
