<svg width="35" height="34" viewBox="0 0 35 34" fill="none" xmlns="http://www.w3.org/2000/svg">
<path fill-rule="evenodd" clip-rule="evenodd" d="M15.2334 5.66706C15.2334 4.41521 16.2482 3.40039 17.5001 3.40039C18.7519 3.40039 19.7667 4.41521 19.7667 5.66706C19.7667 6.9189 18.7519 7.93372 17.5001 7.93372C16.2482 7.93372 15.2334 6.9189 15.2334 5.66706ZM15.2334 17.0004C15.2334 15.7485 16.2482 14.7337 17.5001 14.7337C18.7519 14.7337 19.7667 15.7485 19.7667 17.0004C19.7667 18.2522 18.7519 19.2671 17.5001 19.2671C16.2482 19.2671 15.2334 18.2522 15.2334 17.0004ZM15.2334 28.3337C15.2334 27.0819 16.2482 26.0671 17.5001 26.0671C18.7519 26.0671 19.7667 27.0819 19.7667 28.3337C19.7667 29.5856 18.7519 30.6004 17.5001 30.6004C16.2482 30.6004 15.2334 29.5856 15.2334 28.3337Z" fill="#4F3726"/>
</svg>
