<svg width="130" height="130" viewBox="0 0 130 130" fill="none" xmlns="http://www.w3.org/2000/svg">
<g clip-path="url(#clip0_316_2891)">
<path d="M34.5313 28.6913C31.0654 24.6821 26.5688 21.0182 23.042 17.0751C19.5178 13.1319 14.8789 9.6737 11.6162 5.64928C8.35353 1.62487 1.50568 6.42878 4.88771 10.3465C8.26974 14.2643 12.8197 18.0323 16.4404 21.8993C20.0611 25.7663 24.1363 29.486 27.8662 33.3251C31.5961 37.1641 35.5088 40.9194 39.292 44.7508C43.0777 48.5798 47.0361 52.4798 50.8447 56.3036C54.6508 60.1274 58.4568 63.9157 62.2705 67.7294C66.0842 71.543 69.8725 75.3491 73.6963 79.1551C77.5201 82.9637 81.4176 86.9247 85.249 90.7079C89.0805 94.4911 92.8358 98.4063 96.6748 102.134C100.516 105.861 104.229 109.941 108.101 113.559C111.973 117.175 115.748 121.728 119.61 125.153C123.472 128.578 128.385 121.913 124.605 118.638C120.824 115.362 116.865 110.624 113.242 107.148C114.692 103.073 112.897 98.419 111.899 95.5448C110.901 92.6706 107.481 89.5932 104.333 86.3534C101.182 83.1135 101.606 79.2364 101.563 73.3788C101.519 67.5212 101.522 58.5557 101.563 52.8124C101.603 47.069 101.352 43.2731 100.372 39.2792C99.3891 35.2852 97.9266 33.1397 96.3295 30.1512C94.735 27.1628 91.6043 23.3389 88.4229 20.6145C85.2414 17.8926 82.6846 16.7729 79.4524 15.2673C76.2201 13.7616 73.2697 12.7942 69.3164 12.6952C68.9127 8.5692 69.583 4.28835 65.1777 4.15124C60.7699 4.01667 60.7801 8.54635 60.6836 12.6952C55.25 12.7942 51.0047 14.9499 46.9092 17.1665C42.8162 19.3805 37.2125 24.2479 34.5313 28.6913Z" stroke="#213824" stroke-opacity="0.81" stroke-width="0.3"/>
<path d="M91.1523 109.688C70.3854 88.7098 49.4279 67.7523 28.4375 46.9727C28.3639 51.7461 28.5365 57.5352 28.4375 62.207C28.3385 66.8789 28.6254 73.1428 28.4375 77.4414C28.2496 81.74 28.143 83.2229 26.3428 85.7568C24.54 88.2883 20.5004 90.6268 19.6955 92.9881C18.8906 95.3494 16.7553 97.1395 16.6055 99.8486C16.4531 102.558 14.9348 106.879 17.9512 108.748C20.9676 110.617 26.1803 109.462 30.7227 109.688C35.265 109.913 41.1506 109.583 45.957 109.688C50.7635 109.792 56.0092 109.639 60.9375 109.688C65.8658 109.736 71.1979 109.662 76.1719 109.688C81.1459 109.713 86.1732 109.667 91.1523 109.688Z" stroke="#213824" stroke-opacity="0.81" stroke-width="0.3"/>
<path d="M76.4258 117.812C68.8086 117.812 61.1914 117.812 53.5742 117.812C55.1205 122.439 59.574 125.899 64.9822 125.92C70.3879 125.94 74.882 122.39 76.4258 117.812Z" stroke="#213824" stroke-opacity="0.81" stroke-width="0.3"/>
<path d="M34.5313 28.6913C31.0654 24.6821 26.5688 21.0182 23.042 17.0751C19.5178 13.1319 14.8789 9.6737 11.6162 5.64928C8.35353 1.62487 1.50568 6.42878 4.88771 10.3465C8.26974 14.2643 12.8197 18.0323 16.4404 21.8993C20.0611 25.7663 24.1363 29.486 27.8662 33.3251C31.5961 37.1641 35.5088 40.9194 39.292 44.7508C43.0777 48.5798 47.0361 52.4798 50.8447 56.3036C54.6508 60.1274 58.4568 63.9157 62.2705 67.7294C66.0842 71.543 69.8725 75.3491 73.6963 79.1551C77.5201 82.9637 81.4176 86.9247 85.249 90.7079C89.0805 94.4911 92.8358 98.4063 96.6748 102.134C100.516 105.861 104.229 109.941 108.101 113.559C111.973 117.175 115.748 121.728 119.61 125.153C123.472 128.578 128.385 121.913 124.604 118.638C120.824 115.362 116.865 110.624 113.242 107.148C114.692 103.073 112.897 98.419 111.899 95.5448C110.901 92.6706 107.481 89.5932 104.333 86.3534C101.182 83.1135 101.606 79.2364 101.563 73.3788C101.519 67.5212 101.522 58.5557 101.563 52.8124C101.603 47.069 101.352 43.2731 100.372 39.2792C99.3891 35.2852 97.9266 33.1397 96.3295 30.1512C94.735 27.1628 91.6043 23.3389 88.4229 20.6145C85.2414 17.8926 82.6846 16.7729 79.4524 15.2673C76.2201 13.7616 73.2697 12.7942 69.3164 12.6952C68.9127 8.5692 69.583 4.28835 65.1777 4.15124C60.7699 4.01667 60.7801 8.54635 60.6836 12.6952C55.25 12.7942 51.0047 14.9499 46.9092 17.1665C42.8162 19.3805 37.2125 24.2479 34.5313 28.6913Z" fill="#213824" fill-opacity="0.81" stroke="#213824" stroke-opacity="0.81"/>
<path d="M91.1523 109.688C70.3854 88.7098 49.4279 67.7523 28.4375 46.9727C28.3639 51.7461 28.5365 57.5352 28.4375 62.207C28.3385 66.8789 28.6254 73.1428 28.4375 77.4414C28.2496 81.74 28.143 83.2229 26.3428 85.7568C24.54 88.2883 20.5004 90.6268 19.6955 92.9881C18.8906 95.3494 16.7553 97.1395 16.6055 99.8486C16.4531 102.558 14.9348 106.879 17.9512 108.748C20.9676 110.617 26.1803 109.462 30.7227 109.688C35.265 109.913 41.1506 109.583 45.957 109.688C50.7635 109.792 56.0092 109.639 60.9375 109.688C65.8658 109.736 71.1979 109.662 76.1719 109.688C81.1459 109.713 86.1732 109.667 91.1523 109.688Z" fill="#213824" fill-opacity="0.81" stroke="#213824" stroke-opacity="0.81"/>
<path d="M76.4258 117.812C68.8086 117.812 61.1914 117.812 53.5742 117.812C55.1205 122.439 59.574 125.899 64.9822 125.92C70.3879 125.94 74.882 122.39 76.4258 117.812Z" fill="#213824" fill-opacity="0.81" stroke="#213824" stroke-opacity="0.81"/>
</g>
<defs>
<clipPath id="clip0_316_2891">
<rect width="130" height="130" fill="white"/>
</clipPath>
</defs>
</svg>
