<svg width="35" height="34" viewBox="0 0 35 34" fill="none" xmlns="http://www.w3.org/2000/svg">
<path fill-rule="evenodd" clip-rule="evenodd" d="M2.7666 5.66758C2.7666 3.78981 4.28883 2.26758 6.1666 2.26758H12.9666C14.8444 2.26758 16.3666 3.78981 16.3666 5.66758V12.4676C16.3666 14.3453 14.8444 15.8676 12.9666 15.8676H5.03327V22.6676C5.03327 26.4231 8.07773 29.4676 11.8333 29.4676V31.7342C6.82589 31.7342 2.7666 27.675 2.7666 22.6676V5.66758ZM5.03327 13.6009H12.9666C13.5925 13.6009 14.0999 13.0935 14.0999 12.4676V5.66758C14.0999 5.04166 13.5925 4.53424 12.9666 4.53424H6.1666C5.54068 4.53424 5.03327 5.04166 5.03327 5.66758V13.6009ZM18.6333 5.66758C18.6333 3.78981 20.1555 2.26758 22.0333 2.26758H28.8333C30.711 2.26758 32.2333 3.78981 32.2333 5.66758V12.4676C32.2333 14.3453 30.711 15.8676 28.8333 15.8676H20.8999V22.6676C20.8999 26.4231 23.9444 29.4676 27.6999 29.4676V31.7342C22.6926 31.7342 18.6333 27.675 18.6333 22.6676V5.66758ZM20.8999 13.6009H28.8333C29.4592 13.6009 29.9666 13.0935 29.9666 12.4676V5.66758C29.9666 5.04166 29.4592 4.53424 28.8333 4.53424H22.0333C21.4073 4.53424 20.8999 5.04166 20.8999 5.66758V13.6009Z" fill="#4F3726"/>
</svg>
