<svg width="35" height="34" viewBox="0 0 35 34" fill="none" xmlns="http://www.w3.org/2000/svg">
<path fill-rule="evenodd" clip-rule="evenodd" d="M12.9667 2.26667C9.83603 2.26667 7.3 4.8021 7.3 7.9289C7.3 11.0557 9.83603 13.5911 12.9667 13.5911C16.0973 13.5911 18.6333 11.0557 18.6333 7.9289C18.6333 4.8021 16.0973 2.26667 12.9667 2.26667ZM5.03333 7.9289C5.03333 3.54886 8.58557 0 12.9667 0C17.3478 0 20.9 3.54886 20.9 7.9289C20.9 12.3089 17.3478 15.8578 12.9667 15.8578C8.58557 15.8578 5.03333 12.3089 5.03333 7.9289ZM20.9 14.7333C20.9 11.6037 23.4371 9.06667 26.5667 9.06667C29.6963 9.06667 32.2333 11.6037 32.2333 14.7333C32.2333 17.8629 29.6963 20.4 26.5667 20.4C23.4371 20.4 20.9 17.8629 20.9 14.7333ZM26.5667 11.3333C24.6889 11.3333 23.1667 12.8556 23.1667 14.7333C23.1667 16.6111 24.6889 18.1333 26.5667 18.1333C28.4444 18.1333 29.9667 16.6111 29.9667 14.7333C29.9667 12.8556 28.4444 11.3333 26.5667 11.3333ZM8.43333 22.6534C5.30347 22.6534 2.76667 25.1895 2.76667 28.3189V31.7127H23.1667V28.3189C23.1667 25.1895 20.6299 22.6534 17.5 22.6534H8.43333ZM0.5 28.3189C0.5 23.9372 4.05213 20.3867 8.43333 20.3867H17.5C21.8812 20.3867 25.4333 23.9372 25.4333 28.3189V33.9793H0.5V28.3189ZM32.2333 29.4667C32.2333 26.963 30.2037 24.9333 27.7 24.9333V22.6667C31.4555 22.6667 34.5 25.7111 34.5 29.4667V34H27.7V31.7333H32.2333V29.4667Z" fill="#4F3726"/>
</svg>
