<?xml version="1.0" encoding="UTF-8"?>
<svg xmlns="http://www.w3.org/2000/svg" xmlns:xlink="http://www.w3.org/1999/xlink" width="12px" height="16px" viewBox="0 0 12 16" version="1.1">
<g id="surface1">
<path style=" stroke:none;fill-rule:nonzero;fill:rgb(100%,97.254902%,89.019608%);fill-opacity:0.898039;" d="M 11.03125 12.234375 L 11.027344 10.28125 L 10.988281 10.28125 L 11 12.234375 "/>
<path style=" stroke:none;fill-rule:nonzero;fill:rgb(100%,97.254902%,89.019608%);fill-opacity:0.898039;" d="M 11.015625 5.253906 L 11.011719 4.664062 L 10.980469 4.664062 L 10.984375 5.253906 "/>
<path style=" stroke:none;fill-rule:nonzero;fill:rgb(100%,97.254902%,89.019608%);fill-opacity:0.898039;" d="M 6.527344 13.125 L 6.527344 12.90625 L 6.5 12.90625 L 6.488281 13.027344 L 6.488281 13.125 Z M 6.527344 13.125 "/>
<path style=" stroke:none;fill-rule:nonzero;fill:rgb(100%,97.254902%,89.019608%);fill-opacity:0.898039;" d="M 6.558594 9.027344 L 6.546875 9.589844 L 6.578125 9.589844 L 6.59375 9.027344 "/>
<path style=" stroke:none;fill-rule:nonzero;fill:rgb(100%,97.254902%,89.019608%);fill-opacity:0.898039;" d="M 9.5 6.058594 L 9.421875 6.085938 L 9.4375 6.109375 L 9.511719 6.082031 "/>
<path style=" stroke:none;fill-rule:nonzero;fill:rgb(100%,97.254902%,89.019608%);fill-opacity:0.898039;" d="M 10.855469 5.59375 L 9.511719 6.054688 L 9.519531 6.078125 L 10.863281 5.617188 "/>
<path style=" stroke:none;fill-rule:nonzero;fill:rgb(100%,97.254902%,89.019608%);fill-opacity:0.898039;" d="M 5.328125 12.757812 L 5.328125 12.609375 L 5.292969 12.609375 L 5.292969 12.757812 "/>
<path style=" stroke:none;fill-rule:nonzero;fill:rgb(100%,97.254902%,89.019608%);fill-opacity:0.898039;" d="M 11.863281 5.09375 C 11.84375 4.699219 11.761719 4.316406 11.625 3.949219 C 11.515625 3.625 11.355469 3.3125 11.167969 3.015625 C 10.691406 2.277344 10 1.636719 9.15625 1.148438 C 8.988281 1.046875 8.8125 0.953125 8.628906 0.867188 C 8.207031 0.671875 7.75 0.507812 7.269531 0.382812 C 6.8125 0.304688 6.339844 0.261719 5.855469 0.261719 C 5.527344 0.261719 5.207031 0.28125 4.902344 0.316406 C 4.496094 0.40625 4.105469 0.523438 3.730469 0.667969 C 3.316406 0.828125 2.925781 1.023438 2.574219 1.242188 C 1.90625 1.652344 1.339844 2.164062 0.90625 2.742188 C 0.78125 2.917969 0.667969 3.097656 0.566406 3.28125 C 0.457031 3.472656 0.363281 3.667969 0.292969 3.871094 C 0.109375 4.34375 0.015625 4.84375 0.015625 5.359375 L 0.015625 11.570312 L 1.921875 12.230469 L 0.015625 12.226562 L 0.015625 12.890625 L 3.855469 12.902344 L 5.917969 13.617188 L 0.015625 13.636719 L 0.015625 14.34375 L 7.964844 14.328125 L 9.839844 14.976562 L 0.015625 15.046875 L 0.015625 15.734375 L 11.875 15.703125 L 11.875 5.359375 C 11.875 5.273438 11.871094 5.183594 11.863281 5.09375 Z M 0.03125 5.722656 C 0.03125 5.726562 0.0351562 5.726562 0.0351562 5.726562 C 0.0351562 5.738281 0.0351562 5.742188 0.0351562 5.75 C 0.0351562 5.742188 0.03125 5.734375 0.03125 5.722656 Z M 5.25 12.585938 L 4.234375 12.234375 L 4.167969 12.207031 L 1.234375 11.183594 C 1.222656 11.128906 1.203125 11.070312 1.199219 11.015625 L 1.199219 11.011719 C 1.15625 10.820312 1.15625 10.632812 1.203125 10.445312 C 1.207031 10.429688 1.214844 10.414062 1.214844 10.394531 C 1.28125 10.171875 1.402344 9.957031 1.582031 9.769531 C 1.636719 9.71875 1.683594 9.671875 1.738281 9.628906 C 1.855469 9.535156 1.980469 9.453125 2.121094 9.382812 C 2.175781 9.351562 2.238281 9.328125 2.296875 9.304688 C 2.332031 9.289062 2.375 9.273438 2.40625 9.261719 C 2.484375 9.234375 2.5625 9.210938 2.636719 9.195312 L 2.640625 9.195312 C 2.683594 9.183594 2.722656 9.175781 2.769531 9.167969 C 2.808594 9.160156 2.84375 9.15625 2.875 9.148438 C 2.917969 9.140625 2.957031 9.140625 3 9.136719 C 3.265625 9.109375 3.53125 9.128906 3.785156 9.179688 C 3.894531 9.207031 4 9.234375 4.105469 9.273438 C 4.449219 9.398438 4.765625 9.601562 4.984375 9.875 C 5.019531 9.921875 5.058594 9.96875 5.089844 10.011719 C 5.1875 10.164062 5.25 10.324219 5.285156 10.484375 Z M 5.863281 10.578125 L 5.863281 10.5625 C 5.890625 10.566406 5.917969 10.570312 5.949219 10.570312 C 5.917969 10.570312 5.890625 10.574219 5.863281 10.578125 Z M 11.003906 7.132812 L 11.003906 8.835938 L 11.011719 9.359375 L 11.011719 10.28125 C 10.980469 10.324219 10.953125 10.363281 10.917969 10.402344 L 10.890625 9.429688 L 10.886719 8.945312 C 10.816406 9.007812 10.746094 9.070312 10.671875 9.128906 L 10.671875 14.460938 L 11.011719 14.460938 L 11.011719 14.609375 L 10.199219 14.320312 L 8.167969 13.609375 L 6.511719 13.03125 L 6.160156 12.90625 L 6.511719 12.90625 L 6.519531 12.234375 L 6.546875 10.714844 L 6.546875 10.660156 L 6.550781 10.601562 L 6.550781 10.496094 L 6.566406 9.59375 L 6.566406 9.589844 C 6.519531 9.398438 6.527344 9.210938 6.574219 9.027344 C 6.578125 9.007812 6.578125 8.992188 6.582031 8.972656 C 6.359375 9 6.125 9.015625 5.890625 9.015625 L 5.855469 9.015625 C 5.199219 9.015625 4.5625 8.917969 3.988281 8.742188 C 3.972656 8.738281 3.953125 8.734375 3.941406 8.726562 C 3.59375 8.621094 3.265625 8.484375 2.964844 8.320312 L 1.628906 8.78125 L 0.90625 9.027344 L 0.921875 8 L 0.921875 7.820312 L 0.941406 6.210938 C 0.933594 6.183594 0.921875 6.15625 0.90625 6.128906 L 0.90625 3.796875 C 1.324219 2.71875 2.292969 1.835938 3.550781 1.339844 C 3.921875 1.195312 4.308594 1.085938 4.71875 1.015625 C 5.089844 0.949219 5.464844 0.914062 5.855469 0.914062 C 6.359375 0.914062 6.84375 0.972656 7.308594 1.078125 C 7.5625 1.140625 7.824219 1.210938 8.066406 1.304688 C 9.4375 1.8125 10.480469 2.789062 10.855469 3.96875 C 10.925781 4.1875 10.972656 4.421875 11 4.65625 L 11 4.664062 C 11 4.6875 11.003906 4.710938 11.003906 4.734375 C 11.011719 4.8125 11.011719 4.886719 11.011719 4.964844 C 11.011719 5.0625 11.011719 5.15625 11 5.253906 L 11 5.398438 Z M 11.003906 7.132812 "/>
<path style=" stroke:none;fill-rule:nonzero;fill:rgb(100%,97.254902%,89.019608%);fill-opacity:0.898039;" d="M 11.863281 5.09375 L 11.886719 5.09375 C 11.855469 4.695312 11.769531 4.3125 11.640625 3.945312 C 11.527344 3.617188 11.375 3.308594 11.175781 3.011719 C 10.707031 2.269531 10.015625 1.625 9.171875 1.140625 C 8.996094 1.039062 8.824219 0.945312 8.640625 0.859375 C 8.214844 0.65625 7.761719 0.492188 7.277344 0.367188 C 6.824219 0.289062 6.34375 0.25 5.855469 0.25 C 5.527344 0.25 5.207031 0.265625 4.902344 0.304688 C 4.488281 0.390625 4.09375 0.511719 3.71875 0.65625 C 3.3125 0.816406 2.921875 1.007812 2.5625 1.230469 C 1.890625 1.644531 1.324219 2.15625 0.894531 2.738281 C 0.765625 2.914062 0.652344 3.09375 0.550781 3.277344 C 0.449219 3.46875 0.355469 3.664062 0.277344 3.867188 C 0.0976562 4.339844 0 4.84375 0 5.359375 L 0 11.578125 L 1.84375 12.21875 L 0 12.214844 L 0 12.90625 L 3.855469 12.914062 L 5.84375 13.605469 L 0 13.625 L 0 14.359375 L 7.957031 14.335938 L 9.761719 14.964844 L 0 15.03125 L 0 15.75 L 11.890625 15.71875 L 11.890625 5.359375 C 11.890625 5.273438 11.890625 5.179688 11.886719 5.09375 L 11.847656 5.09375 C 11.855469 5.183594 11.855469 5.273438 11.855469 5.359375 L 11.855469 15.6875 L 0.0351562 15.726562 L 0.0351562 15.054688 L 9.910156 14.992188 L 7.964844 14.3125 L 0.0351562 14.332031 L 0.0351562 13.648438 L 5.996094 13.632812 L 3.859375 12.890625 L 0.0351562 12.878906 L 0.0351562 12.242188 L 2 12.242188 L 0.0351562 11.5625 L 0.0351562 5.359375 C 0.0351562 4.84375 0.128906 4.34375 0.3125 3.875 C 0.378906 3.671875 0.472656 3.476562 0.578125 3.289062 C 0.6875 3.101562 0.796875 2.921875 0.925781 2.75 C 1.355469 2.171875 1.917969 1.664062 2.582031 1.25 C 2.941406 1.03125 3.324219 0.835938 3.738281 0.679688 C 4.109375 0.535156 4.5 0.414062 4.90625 0.328125 L 4.90625 0.316406 L 4.90625 0.328125 C 5.214844 0.292969 5.53125 0.273438 5.855469 0.273438 C 6.339844 0.273438 6.8125 0.316406 7.269531 0.394531 L 7.269531 0.382812 L 7.269531 0.394531 C 7.746094 0.515625 8.199219 0.679688 8.621094 0.878906 C 8.808594 0.964844 8.984375 1.058594 9.152344 1.15625 C 9.996094 1.644531 10.683594 2.285156 11.152344 3.023438 C 11.339844 3.320312 11.496094 3.625 11.609375 3.953125 C 11.738281 4.320312 11.824219 4.703125 11.847656 5.09375 Z M 0.03125 5.722656 L 0.015625 5.722656 C 0.015625 5.726562 0.015625 5.726562 0.015625 5.730469 L 0.03125 5.726562 L 0.015625 5.726562 L 0.015625 5.730469 L 0.03125 5.726562 L 0.015625 5.726562 C 0.015625 5.738281 0.015625 5.746094 0.015625 5.75 L 0.0507812 5.75 C 0.0507812 5.742188 0.0507812 5.730469 0.0507812 5.722656 L 0.015625 5.722656 C 0.015625 5.734375 0.015625 5.742188 0.015625 5.753906 L 0.0507812 5.75 C 0.0507812 5.742188 0.0507812 5.734375 0.0507812 5.726562 L 0.0507812 5.71875 L 0.0429688 5.71875 L 0.0507812 5.71875 L 0.015625 5.71875 L 0.03125 5.71875 Z M 5.25 12.585938 L 5.253906 12.578125 L 4.238281 12.21875 L 4.171875 12.195312 L 1.246094 11.171875 L 1.234375 11.183594 L 1.253906 11.179688 C 1.234375 11.125 1.222656 11.070312 1.207031 11.015625 L 1.199219 11.015625 L 1.207031 11.015625 L 1.207031 11.007812 C 1.1875 10.921875 1.183594 10.835938 1.183594 10.75 C 1.183594 10.648438 1.199219 10.550781 1.21875 10.453125 C 1.222656 10.433594 1.222656 10.414062 1.234375 10.398438 C 1.296875 10.175781 1.417969 9.960938 1.597656 9.777344 C 1.644531 9.730469 1.691406 9.679688 1.75 9.640625 L 1.738281 9.628906 L 1.75 9.640625 C 1.863281 9.546875 1.984375 9.460938 2.136719 9.390625 C 2.1875 9.363281 2.246094 9.339844 2.300781 9.316406 C 2.339844 9.300781 2.378906 9.289062 2.417969 9.273438 L 2.421875 9.273438 C 2.488281 9.25 2.566406 9.226562 2.640625 9.210938 L 2.644531 9.207031 L 2.640625 9.195312 L 2.644531 9.207031 C 2.6875 9.195312 2.730469 9.1875 2.769531 9.179688 C 2.808594 9.171875 2.84375 9.167969 2.886719 9.164062 C 2.921875 9.15625 2.957031 9.15625 3 9.148438 C 3.082031 9.140625 3.15625 9.140625 3.238281 9.140625 C 3.425781 9.140625 3.605469 9.15625 3.78125 9.195312 C 3.886719 9.21875 3.988281 9.25 4.09375 9.285156 C 4.441406 9.410156 4.75 9.613281 4.972656 9.886719 C 5.011719 9.929688 5.042969 9.976562 5.066406 10.015625 C 5.167969 10.171875 5.234375 10.328125 5.265625 10.492188 L 5.285156 10.488281 L 5.265625 10.488281 L 5.234375 12.589844 L 5.25 12.589844 L 5.253906 12.578125 L 5.25 12.589844 L 5.265625 12.589844 L 5.300781 10.484375 C 5.265625 10.320312 5.199219 10.160156 5.097656 10.007812 L 5.089844 10.015625 L 5.097656 10.007812 C 5.066406 9.960938 5.042969 9.914062 5 9.875 C 4.777344 9.59375 4.457031 9.390625 4.109375 9.261719 C 4 9.226562 3.894531 9.195312 3.792969 9.171875 C 3.613281 9.132812 3.425781 9.113281 3.238281 9.113281 C 3.15625 9.113281 3.078125 9.117188 2.996094 9.125 L 2.996094 9.140625 L 2.996094 9.125 C 2.957031 9.128906 2.917969 9.132812 2.875 9.140625 L 2.875 9.152344 L 2.875 9.140625 C 2.832031 9.144531 2.800781 9.148438 2.761719 9.15625 C 2.71875 9.164062 2.675781 9.171875 2.636719 9.183594 L 2.628906 9.1875 L 2.636719 9.195312 L 2.628906 9.1875 C 2.550781 9.203125 2.480469 9.226562 2.402344 9.25 L 2.40625 9.265625 L 2.402344 9.25 C 2.359375 9.265625 2.328125 9.28125 2.285156 9.296875 L 2.292969 9.304688 L 2.285156 9.296875 C 2.230469 9.316406 2.171875 9.34375 2.113281 9.371094 C 1.964844 9.445312 1.839844 9.527344 1.722656 9.621094 C 1.671875 9.664062 1.625 9.714844 1.574219 9.765625 C 1.390625 9.953125 1.265625 10.167969 1.203125 10.394531 C 1.199219 10.414062 1.1875 10.429688 1.1875 10.445312 L 1.203125 10.453125 L 1.1875 10.445312 C 1.160156 10.546875 1.144531 10.648438 1.144531 10.75 C 1.144531 10.839844 1.15625 10.929688 1.175781 11.015625 L 1.199219 11.015625 L 1.175781 11.015625 L 1.175781 11.023438 C 1.1875 11.078125 1.203125 11.132812 1.222656 11.1875 L 1.222656 11.195312 L 4.15625 12.21875 L 4.230469 12.246094 L 5.265625 12.609375 L 5.265625 12.589844 L 5.25 12.589844 Z M 5.863281 10.578125 L 5.886719 10.578125 L 5.886719 10.5625 L 5.863281 10.5625 L 5.863281 10.574219 C 5.890625 10.578125 5.917969 10.578125 5.941406 10.582031 L 5.949219 10.570312 L 5.941406 10.554688 C 5.917969 10.5625 5.890625 10.5625 5.863281 10.5625 L 5.863281 10.585938 C 5.894531 10.585938 5.921875 10.585938 5.949219 10.582031 L 6.074219 10.570312 L 5.949219 10.554688 C 5.921875 10.554688 5.894531 10.554688 5.871094 10.546875 L 5.847656 10.546875 L 5.847656 10.589844 L 5.863281 10.585938 Z M 11.003906 7.132812 L 10.984375 7.132812 L 10.984375 7.949219 L 10.988281 8.835938 L 10.988281 10.28125 L 11.011719 10.28125 L 11 10.277344 C 10.964844 10.320312 10.9375 10.359375 10.90625 10.398438 L 10.917969 10.402344 L 10.933594 10.402344 L 10.910156 9.429688 L 10.894531 8.914062 L 10.871094 8.9375 C 10.800781 9 10.734375 9.0625 10.65625 9.117188 L 10.652344 9.125 L 10.652344 14.476562 L 10.988281 14.472656 L 11 14.585938 L 10.203125 14.304688 L 8.171875 13.597656 L 6.515625 13.015625 L 6.238281 12.921875 L 6.527344 12.921875 L 6.535156 12.234375 L 6.5625 10.714844 L 6.5625 10.660156 L 6.566406 10.601562 L 6.566406 10.496094 L 6.578125 9.59375 L 6.578125 9.585938 C 6.5625 9.5 6.550781 9.414062 6.550781 9.328125 C 6.550781 9.226562 6.566406 9.128906 6.59375 9.03125 C 6.59375 9.011719 6.597656 8.992188 6.605469 8.976562 L 6.609375 8.957031 L 6.582031 8.960938 C 6.359375 8.984375 6.125 9 5.890625 9 L 5.855469 9 C 5.199219 9 4.574219 8.90625 3.996094 8.730469 L 3.988281 8.730469 C 3.972656 8.726562 3.964844 8.722656 3.941406 8.71875 C 3.605469 8.609375 3.277344 8.472656 2.96875 8.3125 L 2.964844 8.304688 L 1.625 8.765625 L 0.925781 9.007812 L 0.9375 8 L 0.941406 7.820312 L 0.957031 6.210938 L 0.953125 6.210938 C 0.941406 6.179688 0.933594 6.15625 0.925781 6.125 L 0.90625 6.132812 L 0.925781 6.132812 L 0.925781 3.796875 L 0.90625 3.796875 L 0.925781 3.800781 C 1.339844 2.726562 2.300781 1.84375 3.558594 1.351562 C 3.921875 1.210938 4.3125 1.097656 4.722656 1.027344 C 5.089844 0.960938 5.46875 0.929688 5.855469 0.929688 C 6.355469 0.929688 6.839844 0.984375 7.300781 1.09375 C 7.5625 1.148438 7.8125 1.226562 8.058594 1.320312 C 9.425781 1.828125 10.457031 2.796875 10.832031 3.96875 C 10.910156 4.195312 10.957031 4.421875 10.980469 4.65625 L 11 4.65625 L 10.980469 4.65625 L 10.980469 4.664062 C 10.980469 4.6875 10.984375 4.710938 10.984375 4.734375 C 10.988281 4.8125 11 4.886719 11 4.964844 C 11 5.0625 10.988281 5.15625 10.980469 5.253906 L 10.980469 5.398438 L 10.984375 7.132812 L 11.019531 7.132812 L 11.015625 5.398438 L 11.015625 5.253906 L 11 5.253906 L 11.015625 5.257812 C 11.027344 5.160156 11.03125 5.0625 11.03125 4.964844 C 11.03125 4.886719 11.027344 4.8125 11.019531 4.734375 L 11 4.734375 L 11.019531 4.734375 C 11.019531 4.710938 11.015625 4.6875 11.011719 4.664062 L 11 4.664062 L 11.011719 4.664062 L 11.011719 4.65625 C 10.984375 4.417969 10.9375 4.1875 10.871094 3.964844 C 10.488281 2.78125 9.449219 1.804688 8.066406 1.296875 L 8.0625 1.304688 L 8.066406 1.296875 C 7.824219 1.203125 7.574219 1.125 7.308594 1.066406 C 6.847656 0.960938 6.359375 0.902344 5.855469 0.902344 C 5.464844 0.902344 5.078125 0.9375 4.71875 1 C 4.300781 1.074219 3.90625 1.183594 3.546875 1.328125 C 2.28125 1.824219 1.308594 2.710938 0.894531 3.792969 L 0.894531 6.132812 C 0.902344 6.164062 0.917969 6.1875 0.925781 6.21875 L 0.941406 6.210938 L 0.925781 6.210938 L 0.90625 7.820312 L 0.90625 8 L 0.894531 9.046875 L 1.636719 8.789062 L 2.96875 8.335938 L 2.957031 8.320312 L 2.949219 8.335938 C 3.261719 8.492188 3.589844 8.632812 3.933594 8.742188 L 3.9375 8.726562 L 3.933594 8.742188 C 3.949219 8.746094 3.96875 8.75 3.984375 8.757812 L 3.988281 8.742188 L 3.980469 8.757812 C 4.5625 8.929688 5.191406 9.03125 5.855469 9.03125 L 5.890625 9.03125 C 6.125 9.027344 6.359375 9.015625 6.59375 8.984375 L 6.574219 8.96875 C 6.566406 8.992188 6.558594 9.007812 6.558594 9.023438 L 6.574219 9.027344 L 6.558594 9.023438 C 6.53125 9.125 6.519531 9.226562 6.519531 9.328125 C 6.519531 9.414062 6.527344 9.503906 6.546875 9.59375 L 6.566406 9.59375 L 6.546875 9.59375 L 6.53125 10.496094 L 6.53125 10.714844 L 6.503906 12.234375 L 6.488281 12.898438 L 6.082031 12.894531 L 6.503906 13.039062 L 8.160156 13.621094 L 10.1875 14.332031 L 11.03125 14.628906 L 11.027344 14.445312 L 10.6875 14.453125 L 10.6875 9.132812 L 10.671875 9.132812 L 10.683594 9.140625 C 10.761719 9.078125 10.828125 9.015625 10.894531 8.953125 L 10.886719 8.945312 L 10.871094 8.945312 L 10.878906 9.433594 L 10.90625 10.445312 L 10.933594 10.414062 C 10.964844 10.375 11 10.332031 11.019531 10.289062 L 11.027344 10.289062 L 11.019531 9.359375 L 11.019531 7.136719 L 11.003906 7.136719 Z M 11.003906 7.132812 "/>
<path style=" stroke:none;fill-rule:nonzero;fill:rgb(100%,97.254902%,89.019608%);fill-opacity:0.898039;" d="M 10.886719 8.945312 C 10.816406 9.007812 10.746094 9.070312 10.671875 9.128906 L 10.671875 9.132812 C 10.640625 8.945312 10.574219 8.765625 10.457031 8.589844 C 10.425781 8.546875 10.394531 8.5 10.359375 8.457031 C 10.136719 8.179688 9.828125 7.976562 9.472656 7.851562 C 8.855469 7.628906 8.113281 7.648438 7.496094 7.960938 C 7.015625 8.199219 6.703125 8.570312 6.59375 8.976562 C 6.359375 9 6.125 9.015625 5.890625 9.015625 L 5.855469 9.015625 C 5.199219 9.015625 4.574219 8.921875 3.988281 8.742188 C 3.972656 8.738281 3.953125 8.734375 3.941406 8.726562 L 6.625 7.765625 C 6.640625 7.757812 6.652344 7.75 6.660156 7.738281 C 6.671875 7.726562 6.6875 7.71875 6.699219 7.710938 C 6.707031 7.703125 6.71875 7.695312 6.730469 7.6875 C 6.753906 7.667969 6.785156 7.648438 6.8125 7.628906 C 6.847656 7.605469 6.878906 7.585938 6.910156 7.5625 C 6.921875 7.554688 6.933594 7.546875 6.949219 7.539062 C 6.953125 7.535156 6.96875 7.53125 6.972656 7.527344 C 6.996094 7.515625 7.019531 7.5 7.035156 7.492188 C 7.042969 7.484375 7.046875 7.484375 7.046875 7.484375 C 7.109375 7.453125 7.167969 7.421875 7.230469 7.390625 C 7.269531 7.375 7.308594 7.359375 7.34375 7.34375 C 7.386719 7.328125 7.421875 7.3125 7.457031 7.296875 C 7.5 7.285156 7.535156 7.273438 7.578125 7.257812 C 7.613281 7.246094 7.65625 7.234375 7.699219 7.21875 C 7.738281 7.210938 7.785156 7.199219 7.824219 7.1875 C 7.953125 7.160156 8.078125 7.136719 8.214844 7.121094 C 8.253906 7.117188 8.300781 7.113281 8.347656 7.109375 C 8.394531 7.105469 8.4375 7.101562 8.480469 7.101562 C 8.527344 7.101562 8.566406 7.101562 8.613281 7.101562 C 8.65625 7.101562 8.703125 7.101562 8.738281 7.101562 C 9.191406 7.117188 9.621094 7.21875 9.988281 7.390625 C 10.332031 7.546875 10.636719 7.765625 10.863281 8.03125 L 10.871094 8.125 Z M 10.886719 8.945312 "/>
<path style=" stroke:none;fill-rule:nonzero;fill:rgb(100%,97.254902%,89.019608%);fill-opacity:0.898039;" d="M 10.886719 8.945312 L 10.871094 8.9375 C 10.800781 9 10.734375 9.0625 10.65625 9.121094 L 10.671875 9.128906 L 10.65625 9.121094 L 10.671875 9.132812 L 10.683594 9.128906 C 10.65625 8.941406 10.589844 8.757812 10.46875 8.585938 L 10.457031 8.589844 L 10.46875 8.585938 C 10.441406 8.539062 10.410156 8.492188 10.375 8.449219 C 10.144531 8.171875 9.832031 7.96875 9.480469 7.839844 C 9.203125 7.742188 8.910156 7.6875 8.609375 7.6875 C 8.21875 7.6875 7.832031 7.773438 7.484375 7.945312 C 7 8.191406 6.6875 8.5625 6.574219 8.96875 L 6.59375 8.972656 L 6.582031 8.960938 C 6.359375 8.984375 6.125 9 5.890625 9 L 5.855469 9 C 5.199219 9 4.578125 8.90625 3.996094 8.730469 C 3.980469 8.726562 3.964844 8.722656 3.949219 8.71875 L 3.941406 8.726562 L 3.949219 8.742188 L 6.640625 7.777344 L 6.640625 7.773438 C 6.652344 7.765625 6.660156 7.757812 6.671875 7.75 C 6.6875 7.738281 6.699219 7.730469 6.707031 7.726562 L 6.707031 7.71875 C 6.71875 7.710938 6.734375 7.703125 6.738281 7.703125 L 6.738281 7.699219 C 6.765625 7.675781 6.796875 7.65625 6.828125 7.640625 L 6.828125 7.636719 C 6.855469 7.617188 6.886719 7.59375 6.921875 7.574219 L 6.921875 7.570312 L 6.925781 7.570312 C 6.933594 7.5625 6.941406 7.558594 6.953125 7.550781 L 6.957031 7.550781 C 6.96875 7.546875 6.972656 7.539062 6.980469 7.539062 L 6.984375 7.539062 C 7 7.523438 7.027344 7.511719 7.046875 7.5 L 7.050781 7.496094 L 7.050781 7.492188 L 7.0625 7.492188 C 7.113281 7.460938 7.175781 7.433594 7.234375 7.40625 L 7.230469 7.390625 L 7.230469 7.40625 L 7.234375 7.40625 C 7.277344 7.386719 7.3125 7.367188 7.347656 7.355469 L 7.34375 7.34375 L 7.347656 7.355469 C 7.390625 7.339844 7.421875 7.324219 7.464844 7.3125 C 7.503906 7.296875 7.542969 7.28125 7.582031 7.269531 L 7.578125 7.257812 L 7.582031 7.269531 C 7.625 7.257812 7.660156 7.246094 7.703125 7.234375 C 7.746094 7.222656 7.785156 7.210938 7.828125 7.203125 C 7.953125 7.171875 8.078125 7.148438 8.214844 7.132812 L 8.214844 7.125 L 8.214844 7.132812 C 8.261719 7.132812 8.300781 7.125 8.347656 7.125 L 8.347656 7.109375 L 8.347656 7.125 C 8.394531 7.117188 8.4375 7.117188 8.480469 7.117188 C 8.527344 7.117188 8.566406 7.113281 8.609375 7.113281 C 8.65625 7.113281 8.703125 7.113281 8.738281 7.117188 C 9.191406 7.132812 9.613281 7.234375 9.980469 7.398438 C 10.328125 7.5625 10.625 7.777344 10.855469 8.039062 L 10.863281 8.03125 L 10.855469 8.03125 L 10.855469 8.128906 L 10.871094 8.945312 L 10.886719 8.945312 L 10.871094 8.9375 L 10.886719 8.945312 L 10.90625 8.945312 L 10.886719 8.128906 L 10.878906 8.023438 C 10.644531 7.757812 10.347656 7.539062 9.996094 7.378906 C 9.625 7.210938 9.199219 7.109375 8.738281 7.09375 L 8.738281 7.101562 L 8.738281 7.09375 C 8.703125 7.085938 8.65625 7.085938 8.609375 7.085938 C 8.566406 7.085938 8.527344 7.085938 8.480469 7.089844 C 8.433594 7.09375 8.386719 7.09375 8.34375 7.097656 C 8.300781 7.101562 8.253906 7.105469 8.207031 7.109375 C 8.078125 7.125 7.949219 7.148438 7.816406 7.179688 C 7.777344 7.1875 7.738281 7.199219 7.691406 7.210938 C 7.652344 7.21875 7.609375 7.234375 7.574219 7.246094 C 7.53125 7.257812 7.496094 7.273438 7.453125 7.289062 C 7.410156 7.300781 7.375 7.316406 7.332031 7.332031 C 7.296875 7.347656 7.261719 7.367188 7.222656 7.382812 L 7.230469 7.390625 L 7.230469 7.378906 L 7.222656 7.378906 L 7.222656 7.382812 C 7.15625 7.410156 7.09375 7.441406 7.035156 7.472656 L 7.046875 7.484375 L 7.042969 7.472656 L 7.027344 7.480469 L 7.042969 7.488281 L 7.03125 7.476562 C 7.011719 7.492188 6.984375 7.5 6.957031 7.515625 L 6.972656 7.527344 L 6.96875 7.515625 C 6.953125 7.519531 6.949219 7.523438 6.9375 7.53125 L 6.949219 7.539062 L 6.941406 7.53125 C 6.925781 7.539062 6.910156 7.546875 6.902344 7.554688 L 6.910156 7.5625 L 6.902344 7.554688 C 6.863281 7.570312 6.839844 7.59375 6.800781 7.617188 L 6.8125 7.625 L 6.800781 7.617188 C 6.769531 7.636719 6.746094 7.65625 6.71875 7.679688 L 6.730469 7.6875 L 6.71875 7.679688 C 6.707031 7.683594 6.699219 7.695312 6.6875 7.703125 L 6.699219 7.710938 L 6.6875 7.703125 C 6.671875 7.710938 6.660156 7.71875 6.652344 7.726562 L 6.660156 7.738281 L 6.652344 7.726562 C 6.640625 7.734375 6.625 7.75 6.613281 7.757812 L 6.625 7.765625 L 6.621094 7.753906 L 3.902344 8.726562 L 3.933594 8.742188 C 3.949219 8.746094 3.96875 8.75 3.984375 8.753906 L 3.988281 8.742188 L 3.984375 8.753906 C 4.5625 8.929688 5.199219 9.027344 5.855469 9.027344 L 5.890625 9.027344 C 6.125 9.027344 6.363281 9.011719 6.59375 8.984375 L 6.605469 8.984375 L 6.605469 8.976562 C 6.71875 8.574219 7.027344 8.210938 7.503906 7.96875 C 7.84375 7.796875 8.230469 7.714844 8.609375 7.714844 C 8.902344 7.714844 9.191406 7.765625 9.464844 7.859375 C 9.8125 7.984375 10.121094 8.1875 10.34375 8.460938 C 10.386719 8.507812 10.410156 8.550781 10.441406 8.59375 C 10.550781 8.765625 10.625 8.945312 10.652344 9.132812 L 10.65625 9.15625 L 10.683594 9.136719 C 10.761719 9.078125 10.828125 9.015625 10.894531 8.953125 L 10.90625 8.949219 L 10.90625 8.945312 Z M 10.886719 8.945312 "/>
<path style=" stroke:none;fill-rule:nonzero;fill:rgb(100%,97.254902%,89.019608%);fill-opacity:0.898039;" d="M 10.953125 5.601562 C 10.90625 5.84375 10.828125 6.074219 10.730469 6.296875 L 8.480469 7.101562 C 8.433594 7.101562 8.390625 7.105469 8.347656 7.109375 C 8.300781 7.109375 8.253906 7.117188 8.214844 7.125 C 8.078125 7.136719 7.953125 7.15625 7.824219 7.1875 C 7.78125 7.195312 7.738281 7.207031 7.699219 7.21875 C 7.65625 7.230469 7.613281 7.242188 7.578125 7.257812 C 7.535156 7.269531 7.496094 7.28125 7.457031 7.296875 C 7.417969 7.3125 7.375 7.328125 7.34375 7.34375 C 7.308594 7.359375 7.269531 7.375 7.230469 7.390625 C 7.167969 7.421875 7.109375 7.453125 7.046875 7.484375 C 7.042969 7.484375 7.042969 7.484375 7.035156 7.492188 C 7.015625 7.5 6.996094 7.515625 6.972656 7.527344 C 6.96875 7.53125 6.953125 7.535156 6.949219 7.539062 C 6.933594 7.546875 6.921875 7.554688 6.910156 7.5625 C 6.878906 7.585938 6.847656 7.605469 6.8125 7.628906 C 6.785156 7.648438 6.753906 7.667969 6.730469 7.6875 C 6.71875 7.695312 6.707031 7.703125 6.699219 7.714844 C 6.6875 7.71875 6.671875 7.730469 6.660156 7.738281 C 6.652344 7.75 6.640625 7.757812 6.625 7.765625 L 3.941406 8.726562 C 3.59375 8.617188 3.265625 8.484375 2.964844 8.320312 L 5.277344 7.523438 L 5.3125 7.515625 L 5.207031 4.085938 L 5.203125 3.835938 L 5.167969 2.582031 C 4.90625 2 4.308594 1.535156 3.550781 1.339844 C 3.921875 1.195312 4.308594 1.085938 4.71875 1.015625 C 5.359375 1.375 5.796875 1.953125 5.839844 2.609375 C 5.988281 1.933594 6.546875 1.367188 7.308594 1.078125 C 7.5625 1.140625 7.824219 1.214844 8.066406 1.304688 C 7.371094 1.53125 6.828125 1.976562 6.566406 2.53125 L 6.550781 3.945312 L 6.546875 4.429688 L 6.511719 7.097656 L 9.425781 6.09375 L 9.503906 6.070312 L 9.515625 6.070312 Z M 10.953125 5.601562 "/>
<path style=" stroke:none;fill-rule:nonzero;fill:rgb(100%,97.254902%,89.019608%);fill-opacity:0.898039;" d="M 10.953125 5.601562 L 10.933594 5.597656 C 10.886719 5.835938 10.8125 6.070312 10.707031 6.292969 L 10.730469 6.296875 L 10.722656 6.289062 L 8.480469 7.089844 L 8.480469 7.101562 L 8.480469 7.085938 C 8.433594 7.089844 8.390625 7.09375 8.347656 7.097656 L 8.347656 7.109375 L 8.347656 7.097656 C 8.300781 7.101562 8.253906 7.101562 8.207031 7.109375 L 8.214844 7.125 L 8.207031 7.109375 C 8.078125 7.125 7.949219 7.148438 7.816406 7.179688 L 7.824219 7.1875 L 7.824219 7.179688 C 7.777344 7.1875 7.738281 7.195312 7.691406 7.210938 L 7.699219 7.222656 L 7.691406 7.210938 C 7.652344 7.21875 7.609375 7.234375 7.574219 7.246094 L 7.578125 7.257812 L 7.574219 7.246094 C 7.53125 7.257812 7.488281 7.273438 7.449219 7.289062 L 7.457031 7.296875 L 7.453125 7.289062 C 7.410156 7.300781 7.375 7.316406 7.332031 7.332031 L 7.34375 7.34375 L 7.332031 7.332031 C 7.296875 7.347656 7.261719 7.363281 7.222656 7.382812 L 7.214844 7.382812 L 7.214844 7.390625 L 7.230469 7.390625 L 7.230469 7.382812 L 7.222656 7.382812 C 7.15625 7.410156 7.09375 7.441406 7.035156 7.476562 L 7.046875 7.484375 L 7.042969 7.472656 L 7.027344 7.480469 L 7.035156 7.492188 L 7.03125 7.476562 C 7.011719 7.492188 6.984375 7.503906 6.957031 7.515625 L 6.972656 7.527344 L 6.96875 7.515625 C 6.953125 7.523438 6.949219 7.523438 6.9375 7.53125 L 6.949219 7.539062 L 6.941406 7.53125 C 6.925781 7.539062 6.910156 7.546875 6.902344 7.554688 L 6.910156 7.5625 L 6.902344 7.554688 C 6.863281 7.574219 6.839844 7.59375 6.800781 7.617188 L 6.8125 7.628906 L 6.800781 7.617188 C 6.769531 7.636719 6.746094 7.65625 6.71875 7.679688 L 6.730469 7.6875 L 6.71875 7.679688 C 6.707031 7.6875 6.699219 7.695312 6.6875 7.703125 L 6.699219 7.710938 L 6.6875 7.703125 C 6.671875 7.710938 6.660156 7.71875 6.652344 7.730469 L 6.660156 7.738281 L 6.652344 7.726562 C 6.640625 7.738281 6.625 7.75 6.613281 7.757812 L 6.625 7.765625 L 6.621094 7.753906 L 3.933594 8.714844 L 3.941406 8.726562 L 3.941406 8.714844 C 3.605469 8.609375 3.277344 8.46875 2.96875 8.308594 L 2.964844 8.320312 L 2.96875 8.332031 L 5.28125 7.539062 L 5.328125 7.523438 L 5.230469 4.082031 L 5.21875 3.835938 L 5.183594 2.578125 C 4.917969 1.988281 4.316406 1.523438 3.558594 1.328125 L 3.550781 1.339844 L 3.558594 1.351562 C 3.921875 1.207031 4.316406 1.097656 4.722656 1.023438 L 4.71875 1.015625 L 4.714844 1.023438 C 5.347656 1.382812 5.777344 1.953125 5.816406 2.609375 L 5.828125 2.722656 L 5.855469 2.609375 C 6.003906 1.9375 6.558594 1.375 7.3125 1.089844 L 7.308594 1.078125 L 7.300781 1.089844 C 7.5625 1.148438 7.8125 1.226562 8.058594 1.320312 L 8.066406 1.304688 L 8.058594 1.296875 C 7.359375 1.519531 6.808594 1.96875 6.550781 2.527344 L 6.546875 2.53125 L 6.53125 3.945312 L 6.527344 4.429688 L 6.5 7.117188 L 9.433594 6.109375 L 9.511719 6.082031 L 9.519531 6.078125 L 10.953125 5.609375 L 10.953125 5.601562 L 10.9375 5.585938 L 9.511719 6.054688 L 9.5 6.058594 L 9.421875 6.085938 L 6.53125 7.078125 L 6.558594 4.429688 L 6.566406 3.945312 L 6.578125 2.53125 L 6.566406 2.53125 L 6.578125 2.535156 C 6.839844 1.984375 7.375 1.539062 8.066406 1.320312 L 8.105469 1.304688 L 8.074219 1.296875 C 7.828125 1.203125 7.574219 1.125 7.308594 1.0625 L 7.300781 1.0625 L 7.296875 1.066406 C 6.53125 1.359375 5.96875 1.925781 5.816406 2.605469 L 5.839844 2.609375 L 5.855469 2.609375 C 5.808594 1.945312 5.375 1.367188 4.730469 1 L 4.71875 1 C 4.308594 1.070312 3.90625 1.183594 3.546875 1.328125 L 3.511719 1.34375 L 3.546875 1.351562 C 4.296875 1.546875 4.886719 2.007812 5.152344 2.585938 L 5.160156 2.582031 L 5.152344 2.582031 L 5.1875 3.835938 L 5.191406 4.082031 L 5.292969 7.503906 L 5.265625 7.515625 L 2.925781 8.316406 L 2.953125 8.328125 C 3.261719 8.492188 3.589844 8.632812 3.933594 8.738281 L 3.941406 8.742188 L 6.640625 7.773438 C 6.652344 7.765625 6.660156 7.757812 6.671875 7.75 L 6.671875 7.746094 C 6.6875 7.734375 6.699219 7.730469 6.707031 7.722656 L 6.707031 7.71875 C 6.71875 7.710938 6.730469 7.703125 6.738281 7.699219 L 6.738281 7.695312 C 6.765625 7.675781 6.796875 7.65625 6.828125 7.636719 C 6.855469 7.613281 6.886719 7.59375 6.921875 7.570312 C 6.933594 7.5625 6.941406 7.558594 6.953125 7.550781 C 6.96875 7.546875 6.972656 7.539062 6.980469 7.539062 C 7 7.523438 7.027344 7.507812 7.046875 7.5 L 7.050781 7.492188 C 7.113281 7.460938 7.175781 7.429688 7.234375 7.402344 L 7.222656 7.390625 L 7.222656 7.40625 L 7.25 7.40625 L 7.25 7.390625 L 7.230469 7.390625 L 7.234375 7.402344 C 7.277344 7.382812 7.3125 7.367188 7.347656 7.355469 L 7.347656 7.351562 C 7.390625 7.335938 7.421875 7.320312 7.464844 7.3125 L 7.464844 7.308594 C 7.503906 7.296875 7.542969 7.28125 7.582031 7.269531 C 7.625 7.257812 7.660156 7.242188 7.703125 7.234375 C 7.746094 7.21875 7.785156 7.210938 7.824219 7.203125 L 7.828125 7.203125 C 7.953125 7.171875 8.078125 7.148438 8.214844 7.132812 C 8.253906 7.125 8.300781 7.125 8.347656 7.121094 C 8.394531 7.117188 8.433594 7.117188 8.480469 7.113281 L 8.484375 7.113281 L 10.738281 6.304688 C 10.84375 6.078125 10.917969 5.84375 10.964844 5.601562 L 10.96875 5.578125 L 10.9375 5.585938 Z M 10.953125 5.601562 "/>
<path style=" stroke:none;fill-rule:nonzero;fill:rgb(100%,97.254902%,89.019608%);fill-opacity:0.898039;" d="M 11.359375 8.03125 L 10.863281 8.03125 L 10.863281 10.5625 L 11.359375 10.5625 Z M 11.359375 8.03125 "/>
<path style=" stroke:none;fill-rule:nonzero;fill:rgb(100%,97.254902%,89.019608%);fill-opacity:0.898039;" d="M 11.359375 10.5625 L 11.359375 10.546875 L 10.878906 10.546875 L 10.878906 8.042969 L 11.34375 8.042969 L 11.34375 10.5625 L 11.359375 10.5625 L 11.359375 10.546875 L 11.359375 10.5625 L 11.378906 10.5625 L 11.378906 8.015625 L 10.855469 8.015625 L 10.855469 10.574219 L 11.378906 10.574219 L 11.378906 10.5625 Z M 11.359375 10.5625 "/>
<path style=" stroke:none;fill-rule:nonzero;fill:rgb(100%,97.254902%,89.019608%);fill-opacity:0.898039;" d="M 6.511719 12.824219 L 6.144531 12.824219 L 6.144531 13.203125 L 6.511719 13.203125 Z M 6.511719 12.824219 "/>
<path style=" stroke:none;fill-rule:nonzero;fill:rgb(100%,97.254902%,89.019608%);fill-opacity:0.898039;" d="M 6.511719 13.203125 L 6.511719 13.191406 L 6.160156 13.191406 L 6.160156 12.835938 L 6.5 12.835938 L 6.5 13.203125 L 6.511719 13.203125 L 6.511719 13.191406 L 6.511719 13.203125 L 6.527344 13.203125 L 6.527344 12.8125 L 6.128906 12.8125 L 6.128906 13.21875 L 6.527344 13.21875 L 6.527344 13.203125 Z M 6.511719 13.203125 "/>
<path style=" stroke:none;fill-rule:nonzero;fill:rgb(100%,97.254902%,89.019608%);fill-opacity:0.898039;" d="M 11.113281 14.328125 L 10.671875 14.328125 L 10.671875 14.804688 L 11.113281 14.804688 Z M 11.113281 14.328125 "/>
<path style=" stroke:none;fill-rule:nonzero;fill:rgb(100%,97.254902%,89.019608%);fill-opacity:0.898039;" d="M 11.113281 14.804688 L 11.113281 14.792969 L 10.6875 14.792969 L 10.6875 14.34375 L 11.097656 14.34375 L 11.097656 14.804688 L 11.113281 14.804688 L 11.113281 14.792969 L 11.113281 14.804688 L 11.125 14.804688 L 11.125 14.320312 L 10.65625 14.320312 L 10.65625 14.820312 L 11.125 14.820312 L 11.125 14.804688 Z M 11.113281 14.804688 "/>
</g>
</svg>
